ISO-10303-21;
HEADER;
/* Generated by software containing ST-Developer
 * from STEP Tools, Inc. (www.steptools.com) 
 */
/* OPTION: using custom renumber hook */

FILE_DESCRIPTION(
/* description */ ('STEP AP242 Edition 2',
'CAx-IF Rec.Pracs.---Representation and Presentation of Product Manufa
cturing Information (PMI)---4.0---2014-10-13',
'CAx-IF Rec.Pracs.---3D Tessellated Geometry---0.4---2014-09-14','2;1',
'CAx-IF Rec.Pracs.---User Defined Attributes---1.5---2016-08-15'),
/* implementation_level */ '2;1');

FILE_NAME(
/* name */ 'Part Studio 1 - Top',
/* time_stamp */ '2026-04-25T10:42:00Z',
/* author */ (''),
/* organization */ (''),
/* preprocessor_version */ 'ST-DEVELOPER v20',
/* originating_system */ 'ONSHAPE BY PTC INC, 1.214',
/* authorisation */ '  ');

FILE_SCHEMA (('AP242_MANAGED_MODEL_BASED_3D_ENGINEERING_MIM_LF { 1 0 10303 442 3 1 4 }'));
ENDSEC;

DATA;
#10=SHAPE_REPRESENTATION_RELATIONSHIP('','',#1245,#11);
#11=ADVANCED_BREP_SHAPE_REPRESENTATION('',(#1243),#2025);
#12=SPHERICAL_SURFACE('',#1286,0.01);
#13=SPHERICAL_SURFACE('',#1297,0.01);
#14=SPHERICAL_SURFACE('',#1299,0.01);
#15=SPHERICAL_SURFACE('',#1305,0.01);
#16=CYLINDRICAL_SURFACE('',#1284,0.01);
#17=CYLINDRICAL_SURFACE('',#1289,0.01);
#18=CYLINDRICAL_SURFACE('',#1291,0.01);
#19=CYLINDRICAL_SURFACE('',#1293,0.01);
#20=CYLINDRICAL_SURFACE('',#1295,0.01);
#21=CYLINDRICAL_SURFACE('',#1301,0.01);
#22=CYLINDRICAL_SURFACE('',#1303,0.01);
#23=CYLINDRICAL_SURFACE('',#1307,0.01);
#24=CYLINDRICAL_SURFACE('',#1309,0.0015);
#25=CYLINDRICAL_SURFACE('',#1311,0.0015);
#26=CYLINDRICAL_SURFACE('',#1313,0.0015);
#27=CYLINDRICAL_SURFACE('',#1315,0.0015);
#28=CYLINDRICAL_SURFACE('',#1316,0.003);
#29=CYLINDRICAL_SURFACE('',#1318,0.0015);
#30=CYLINDRICAL_SURFACE('',#1320,0.0015);
#31=CYLINDRICAL_SURFACE('',#1322,0.00149999999999997);
#32=CYLINDRICAL_SURFACE('',#1324,0.00149999999999997);
#33=CIRCLE('',#1250,0.003);
#34=CIRCLE('',#1251,0.0015);
#35=CIRCLE('',#1252,0.0015);
#36=CIRCLE('',#1253,0.0015);
#37=CIRCLE('',#1254,0.0015);
#38=CIRCLE('',#1256,0.003);
#39=CIRCLE('',#1257,0.0015);
#40=CIRCLE('',#1258,0.0015);
#41=CIRCLE('',#1259,0.0015);
#42=CIRCLE('',#1260,0.0015);
#43=CIRCLE('',#1266,0.0015);
#44=CIRCLE('',#1267,0.00149999999999997);
#45=CIRCLE('',#1268,0.00149999999999997);
#46=CIRCLE('',#1269,0.0015);
#47=CIRCLE('',#1274,0.00149999999999997);
#48=CIRCLE('',#1275,0.0015);
#49=CIRCLE('',#1276,0.0015);
#50=CIRCLE('',#1277,0.00149999999999997);
#51=CIRCLE('',#1280,0.01);
#52=CIRCLE('',#1281,0.01);
#53=CIRCLE('',#1282,0.01);
#54=CIRCLE('',#1283,0.01);
#55=CIRCLE('',#1285,0.01);
#56=CIRCLE('',#1287,0.01);
#57=CIRCLE('',#1288,0.01);
#58=CIRCLE('',#1290,0.01);
#59=CIRCLE('',#1292,0.01);
#60=CIRCLE('',#1294,0.01);
#61=CIRCLE('',#1296,0.01);
#62=CIRCLE('',#1298,0.01);
#63=CIRCLE('',#1300,0.01);
#64=CIRCLE('',#1302,0.01);
#65=CIRCLE('',#1304,0.01);
#66=CIRCLE('',#1306,0.01);
#67=ORIENTED_EDGE('',*,*,#407,.T.);
#68=ORIENTED_EDGE('',*,*,#408,.F.);
#69=ORIENTED_EDGE('',*,*,#409,.F.);
#70=ORIENTED_EDGE('',*,*,#410,.T.);
#71=ORIENTED_EDGE('',*,*,#411,.T.);
#72=ORIENTED_EDGE('',*,*,#412,.F.);
#73=ORIENTED_EDGE('',*,*,#413,.F.);
#74=ORIENTED_EDGE('',*,*,#414,.T.);
#75=ORIENTED_EDGE('',*,*,#415,.F.);
#76=ORIENTED_EDGE('',*,*,#416,.T.);
#77=ORIENTED_EDGE('',*,*,#417,.T.);
#78=ORIENTED_EDGE('',*,*,#418,.T.);
#79=ORIENTED_EDGE('',*,*,#419,.T.);
#80=ORIENTED_EDGE('',*,*,#420,.T.);
#81=ORIENTED_EDGE('',*,*,#421,.F.);
#82=ORIENTED_EDGE('',*,*,#422,.F.);
#83=ORIENTED_EDGE('',*,*,#423,.T.);
#84=ORIENTED_EDGE('',*,*,#424,.F.);
#85=ORIENTED_EDGE('',*,*,#425,.F.);
#86=ORIENTED_EDGE('',*,*,#426,.T.);
#87=ORIENTED_EDGE('',*,*,#427,.T.);
#88=ORIENTED_EDGE('',*,*,#428,.T.);
#89=ORIENTED_EDGE('',*,*,#429,.F.);
#90=ORIENTED_EDGE('',*,*,#430,.F.);
#91=ORIENTED_EDGE('',*,*,#431,.F.);
#92=ORIENTED_EDGE('',*,*,#432,.F.);
#93=ORIENTED_EDGE('',*,*,#433,.T.);
#94=ORIENTED_EDGE('',*,*,#434,.T.);
#95=ORIENTED_EDGE('',*,*,#435,.F.);
#96=ORIENTED_EDGE('',*,*,#436,.F.);
#97=ORIENTED_EDGE('',*,*,#437,.T.);
#98=ORIENTED_EDGE('',*,*,#438,.T.);
#99=ORIENTED_EDGE('',*,*,#439,.T.);
#100=ORIENTED_EDGE('',*,*,#440,.F.);
#101=ORIENTED_EDGE('',*,*,#441,.F.);
#102=ORIENTED_EDGE('',*,*,#442,.T.);
#103=ORIENTED_EDGE('',*,*,#443,.T.);
#104=ORIENTED_EDGE('',*,*,#444,.F.);
#105=ORIENTED_EDGE('',*,*,#445,.F.);
#106=ORIENTED_EDGE('',*,*,#446,.T.);
#107=ORIENTED_EDGE('',*,*,#447,.T.);
#108=ORIENTED_EDGE('',*,*,#448,.F.);
#109=ORIENTED_EDGE('',*,*,#449,.F.);
#110=ORIENTED_EDGE('',*,*,#450,.T.);
#111=ORIENTED_EDGE('',*,*,#451,.F.);
#112=ORIENTED_EDGE('',*,*,#452,.F.);
#113=ORIENTED_EDGE('',*,*,#453,.T.);
#114=ORIENTED_EDGE('',*,*,#454,.T.);
#115=ORIENTED_EDGE('',*,*,#455,.T.);
#116=ORIENTED_EDGE('',*,*,#456,.T.);
#117=ORIENTED_EDGE('',*,*,#457,.F.);
#118=ORIENTED_EDGE('',*,*,#458,.T.);
#119=ORIENTED_EDGE('',*,*,#459,.F.);
#120=ORIENTED_EDGE('',*,*,#460,.F.);
#121=ORIENTED_EDGE('',*,*,#461,.T.);
#122=ORIENTED_EDGE('',*,*,#462,.F.);
#123=ORIENTED_EDGE('',*,*,#463,.T.);
#124=ORIENTED_EDGE('',*,*,#464,.F.);
#125=ORIENTED_EDGE('',*,*,#465,.F.);
#126=ORIENTED_EDGE('',*,*,#466,.F.);
#127=ORIENTED_EDGE('',*,*,#467,.F.);
#128=ORIENTED_EDGE('',*,*,#468,.F.);
#129=ORIENTED_EDGE('',*,*,#469,.F.);
#130=ORIENTED_EDGE('',*,*,#470,.F.);
#131=ORIENTED_EDGE('',*,*,#471,.T.);
#132=ORIENTED_EDGE('',*,*,#432,.T.);
#133=ORIENTED_EDGE('',*,*,#472,.F.);
#134=ORIENTED_EDGE('',*,*,#473,.T.);
#135=ORIENTED_EDGE('',*,*,#474,.F.);
#136=ORIENTED_EDGE('',*,*,#475,.F.);
#137=ORIENTED_EDGE('',*,*,#476,.F.);
#138=ORIENTED_EDGE('',*,*,#477,.F.);
#139=ORIENTED_EDGE('',*,*,#478,.F.);
#140=ORIENTED_EDGE('',*,*,#479,.T.);
#141=ORIENTED_EDGE('',*,*,#480,.T.);
#142=ORIENTED_EDGE('',*,*,#481,.T.);
#143=ORIENTED_EDGE('',*,*,#482,.F.);
#144=ORIENTED_EDGE('',*,*,#483,.F.);
#145=ORIENTED_EDGE('',*,*,#484,.F.);
#146=ORIENTED_EDGE('',*,*,#469,.T.);
#147=ORIENTED_EDGE('',*,*,#431,.T.);
#148=ORIENTED_EDGE('',*,*,#485,.F.);
#149=ORIENTED_EDGE('',*,*,#486,.T.);
#150=ORIENTED_EDGE('',*,*,#487,.F.);
#151=ORIENTED_EDGE('',*,*,#480,.F.);
#152=ORIENTED_EDGE('',*,*,#488,.T.);
#153=ORIENTED_EDGE('',*,*,#489,.F.);
#154=ORIENTED_EDGE('',*,*,#488,.F.);
#155=ORIENTED_EDGE('',*,*,#483,.T.);
#156=ORIENTED_EDGE('',*,*,#490,.T.);
#157=ORIENTED_EDGE('',*,*,#491,.F.);
#158=ORIENTED_EDGE('',*,*,#490,.F.);
#159=ORIENTED_EDGE('',*,*,#482,.T.);
#160=ORIENTED_EDGE('',*,*,#492,.T.);
#161=ORIENTED_EDGE('',*,*,#493,.F.);
#162=ORIENTED_EDGE('',*,*,#494,.T.);
#163=ORIENTED_EDGE('',*,*,#495,.F.);
#164=ORIENTED_EDGE('',*,*,#496,.T.);
#165=ORIENTED_EDGE('',*,*,#497,.F.);
#166=ORIENTED_EDGE('',*,*,#498,.F.);
#167=ORIENTED_EDGE('',*,*,#499,.F.);
#168=ORIENTED_EDGE('',*,*,#500,.F.);
#169=ORIENTED_EDGE('',*,*,#501,.T.);
#170=ORIENTED_EDGE('',*,*,#502,.T.);
#171=ORIENTED_EDGE('',*,*,#503,.T.);
#172=ORIENTED_EDGE('',*,*,#504,.T.);
#173=ORIENTED_EDGE('',*,*,#505,.T.);
#174=ORIENTED_EDGE('',*,*,#506,.T.);
#175=ORIENTED_EDGE('',*,*,#507,.T.);
#176=ORIENTED_EDGE('',*,*,#508,.T.);
#177=ORIENTED_EDGE('',*,*,#509,.T.);
#178=ORIENTED_EDGE('',*,*,#492,.F.);
#179=ORIENTED_EDGE('',*,*,#481,.F.);
#180=ORIENTED_EDGE('',*,*,#487,.T.);
#181=ORIENTED_EDGE('',*,*,#510,.T.);
#182=ORIENTED_EDGE('',*,*,#511,.T.);
#183=ORIENTED_EDGE('',*,*,#512,.T.);
#184=ORIENTED_EDGE('',*,*,#513,.T.);
#185=ORIENTED_EDGE('',*,*,#486,.F.);
#186=ORIENTED_EDGE('',*,*,#489,.T.);
#187=ORIENTED_EDGE('',*,*,#491,.T.);
#188=ORIENTED_EDGE('',*,*,#509,.F.);
#189=ORIENTED_EDGE('',*,*,#514,.F.);
#190=ORIENTED_EDGE('',*,*,#515,.T.);
#191=ORIENTED_EDGE('',*,*,#516,.F.);
#192=ORIENTED_EDGE('',*,*,#517,.T.);
#193=ORIENTED_EDGE('',*,*,#518,.T.);
#194=ORIENTED_EDGE('',*,*,#519,.T.);
#195=ORIENTED_EDGE('',*,*,#520,.T.);
#196=ORIENTED_EDGE('',*,*,#521,.T.);
#197=ORIENTED_EDGE('',*,*,#470,.T.);
#198=ORIENTED_EDGE('',*,*,#484,.T.);
#199=ORIENTED_EDGE('',*,*,#522,.F.);
#200=ORIENTED_EDGE('',*,*,#523,.F.);
#201=ORIENTED_EDGE('',*,*,#522,.T.);
#202=ORIENTED_EDGE('',*,*,#485,.T.);
#203=ORIENTED_EDGE('',*,*,#434,.F.);
#204=ORIENTED_EDGE('',*,*,#524,.F.);
#205=ORIENTED_EDGE('',*,*,#523,.T.);
#206=ORIENTED_EDGE('',*,*,#524,.T.);
#207=ORIENTED_EDGE('',*,*,#433,.F.);
#208=ORIENTED_EDGE('',*,*,#471,.F.);
#209=ORIENTED_EDGE('',*,*,#457,.T.);
#210=ORIENTED_EDGE('',*,*,#525,.T.);
#211=ORIENTED_EDGE('',*,*,#415,.T.);
#212=ORIENTED_EDGE('',*,*,#526,.T.);
#213=ORIENTED_EDGE('',*,*,#505,.F.);
#214=ORIENTED_EDGE('',*,*,#527,.T.);
#215=ORIENTED_EDGE('',*,*,#503,.F.);
#216=ORIENTED_EDGE('',*,*,#528,.T.);
#217=ORIENTED_EDGE('',*,*,#529,.F.);
#218=ORIENTED_EDGE('',*,*,#504,.F.);
#219=ORIENTED_EDGE('',*,*,#527,.F.);
#220=ORIENTED_EDGE('',*,*,#508,.F.);
#221=ORIENTED_EDGE('',*,*,#530,.F.);
#222=ORIENTED_EDGE('',*,*,#529,.T.);
#223=ORIENTED_EDGE('',*,*,#531,.F.);
#224=ORIENTED_EDGE('',*,*,#526,.F.);
#225=ORIENTED_EDGE('',*,*,#418,.F.);
#226=ORIENTED_EDGE('',*,*,#532,.F.);
#227=ORIENTED_EDGE('',*,*,#506,.F.);
#228=ORIENTED_EDGE('',*,*,#531,.T.);
#229=ORIENTED_EDGE('',*,*,#507,.F.);
#230=ORIENTED_EDGE('',*,*,#533,.F.);
#231=ORIENTED_EDGE('',*,*,#513,.F.);
#232=ORIENTED_EDGE('',*,*,#530,.T.);
#233=ORIENTED_EDGE('',*,*,#512,.F.);
#234=ORIENTED_EDGE('',*,*,#534,.F.);
#235=ORIENTED_EDGE('',*,*,#501,.F.);
#236=ORIENTED_EDGE('',*,*,#528,.F.);
#237=ORIENTED_EDGE('',*,*,#502,.F.);
#238=ORIENTED_EDGE('',*,*,#535,.F.);
#239=ORIENTED_EDGE('',*,*,#458,.F.);
#240=ORIENTED_EDGE('',*,*,#533,.T.);
#241=ORIENTED_EDGE('',*,*,#532,.T.);
#242=ORIENTED_EDGE('',*,*,#536,.F.);
#243=ORIENTED_EDGE('',*,*,#535,.T.);
#244=ORIENTED_EDGE('',*,*,#534,.T.);
#245=ORIENTED_EDGE('',*,*,#537,.F.);
#246=ORIENTED_EDGE('',*,*,#536,.T.);
#247=ORIENTED_EDGE('',*,*,#417,.F.);
#248=ORIENTED_EDGE('',*,*,#538,.F.);
#249=ORIENTED_EDGE('',*,*,#510,.F.);
#250=ORIENTED_EDGE('',*,*,#537,.T.);
#251=ORIENTED_EDGE('',*,*,#511,.F.);
#252=ORIENTED_EDGE('',*,*,#539,.F.);
#253=ORIENTED_EDGE('',*,*,#455,.F.);
#254=ORIENTED_EDGE('',*,*,#539,.T.);
#255=ORIENTED_EDGE('',*,*,#538,.T.);
#256=ORIENTED_EDGE('',*,*,#540,.F.);
#257=ORIENTED_EDGE('',*,*,#525,.F.);
#258=ORIENTED_EDGE('',*,*,#456,.F.);
#259=ORIENTED_EDGE('',*,*,#540,.T.);
#260=ORIENTED_EDGE('',*,*,#416,.F.);
#261=ORIENTED_EDGE('',*,*,#541,.T.);
#262=ORIENTED_EDGE('',*,*,#461,.F.);
#263=ORIENTED_EDGE('',*,*,#542,.F.);
#264=ORIENTED_EDGE('',*,*,#473,.F.);
#265=ORIENTED_EDGE('',*,*,#474,.T.);
#266=ORIENTED_EDGE('',*,*,#542,.T.);
#267=ORIENTED_EDGE('',*,*,#460,.T.);
#268=ORIENTED_EDGE('',*,*,#543,.F.);
#269=ORIENTED_EDGE('',*,*,#475,.T.);
#270=ORIENTED_EDGE('',*,*,#543,.T.);
#271=ORIENTED_EDGE('',*,*,#467,.T.);
#272=ORIENTED_EDGE('',*,*,#544,.F.);
#273=ORIENTED_EDGE('',*,*,#476,.T.);
#274=ORIENTED_EDGE('',*,*,#544,.T.);
#275=ORIENTED_EDGE('',*,*,#466,.T.);
#276=ORIENTED_EDGE('',*,*,#545,.F.);
#277=ORIENTED_EDGE('',*,*,#477,.T.);
#278=ORIENTED_EDGE('',*,*,#545,.T.);
#279=ORIENTED_EDGE('',*,*,#465,.T.);
#280=ORIENTED_EDGE('',*,*,#546,.F.);
#281=ORIENTED_EDGE('',*,*,#478,.T.);
#282=ORIENTED_EDGE('',*,*,#546,.T.);
#283=ORIENTED_EDGE('',*,*,#464,.T.);
#284=ORIENTED_EDGE('',*,*,#547,.F.);
#285=ORIENTED_EDGE('',*,*,#547,.T.);
#286=ORIENTED_EDGE('',*,*,#463,.F.);
#287=ORIENTED_EDGE('',*,*,#548,.F.);
#288=ORIENTED_EDGE('',*,*,#479,.F.);
#289=ORIENTED_EDGE('',*,*,#472,.T.);
#290=ORIENTED_EDGE('',*,*,#548,.T.);
#291=ORIENTED_EDGE('',*,*,#462,.T.);
#292=ORIENTED_EDGE('',*,*,#541,.F.);
#293=ORIENTED_EDGE('',*,*,#468,.T.);
#294=ORIENTED_EDGE('',*,*,#459,.T.);
#295=ORIENTED_EDGE('',*,*,#494,.F.);
#296=ORIENTED_EDGE('',*,*,#549,.F.);
#297=ORIENTED_EDGE('',*,*,#516,.T.);
#298=ORIENTED_EDGE('',*,*,#550,.T.);
#299=ORIENTED_EDGE('',*,*,#493,.T.);
#300=ORIENTED_EDGE('',*,*,#551,.F.);
#301=ORIENTED_EDGE('',*,*,#517,.F.);
#302=ORIENTED_EDGE('',*,*,#549,.T.);
#303=ORIENTED_EDGE('',*,*,#500,.T.);
#304=ORIENTED_EDGE('',*,*,#552,.F.);
#305=ORIENTED_EDGE('',*,*,#518,.F.);
#306=ORIENTED_EDGE('',*,*,#551,.T.);
#307=ORIENTED_EDGE('',*,*,#499,.T.);
#308=ORIENTED_EDGE('',*,*,#553,.F.);
#309=ORIENTED_EDGE('',*,*,#519,.F.);
#310=ORIENTED_EDGE('',*,*,#552,.T.);
#311=ORIENTED_EDGE('',*,*,#498,.T.);
#312=ORIENTED_EDGE('',*,*,#554,.F.);
#313=ORIENTED_EDGE('',*,*,#520,.F.);
#314=ORIENTED_EDGE('',*,*,#553,.T.);
#315=ORIENTED_EDGE('',*,*,#497,.T.);
#316=ORIENTED_EDGE('',*,*,#555,.F.);
#317=ORIENTED_EDGE('',*,*,#521,.F.);
#318=ORIENTED_EDGE('',*,*,#554,.T.);
#319=ORIENTED_EDGE('',*,*,#496,.F.);
#320=ORIENTED_EDGE('',*,*,#556,.F.);
#321=ORIENTED_EDGE('',*,*,#514,.T.);
#322=ORIENTED_EDGE('',*,*,#555,.T.);
#323=ORIENTED_EDGE('',*,*,#495,.T.);
#324=ORIENTED_EDGE('',*,*,#550,.F.);
#325=ORIENTED_EDGE('',*,*,#515,.F.);
#326=ORIENTED_EDGE('',*,*,#556,.T.);
#327=ORIENTED_EDGE('',*,*,#419,.F.);
#328=ORIENTED_EDGE('',*,*,#557,.F.);
#329=ORIENTED_EDGE('',*,*,#436,.T.);
#330=ORIENTED_EDGE('',*,*,#558,.T.);
#331=ORIENTED_EDGE('',*,*,#422,.T.);
#332=ORIENTED_EDGE('',*,*,#559,.F.);
#333=ORIENTED_EDGE('',*,*,#437,.F.);
#334=ORIENTED_EDGE('',*,*,#557,.T.);
#335=ORIENTED_EDGE('',*,*,#421,.T.);
#336=ORIENTED_EDGE('',*,*,#560,.F.);
#337=ORIENTED_EDGE('',*,*,#438,.F.);
#338=ORIENTED_EDGE('',*,*,#559,.T.);
#339=ORIENTED_EDGE('',*,*,#420,.F.);
#340=ORIENTED_EDGE('',*,*,#558,.F.);
#341=ORIENTED_EDGE('',*,*,#435,.T.);
#342=ORIENTED_EDGE('',*,*,#560,.T.);
#343=ORIENTED_EDGE('',*,*,#411,.F.);
#344=ORIENTED_EDGE('',*,*,#561,.F.);
#345=ORIENTED_EDGE('',*,*,#440,.T.);
#346=ORIENTED_EDGE('',*,*,#562,.T.);
#347=ORIENTED_EDGE('',*,*,#414,.F.);
#348=ORIENTED_EDGE('',*,*,#563,.F.);
#349=ORIENTED_EDGE('',*,*,#441,.T.);
#350=ORIENTED_EDGE('',*,*,#561,.T.);
#351=ORIENTED_EDGE('',*,*,#413,.T.);
#352=ORIENTED_EDGE('',*,*,#564,.F.);
#353=ORIENTED_EDGE('',*,*,#442,.F.);
#354=ORIENTED_EDGE('',*,*,#563,.T.);
#355=ORIENTED_EDGE('',*,*,#412,.T.);
#356=ORIENTED_EDGE('',*,*,#562,.F.);
#357=ORIENTED_EDGE('',*,*,#439,.F.);
#358=ORIENTED_EDGE('',*,*,#564,.T.);
#359=ORIENTED_EDGE('',*,*,#423,.F.);
#360=ORIENTED_EDGE('',*,*,#565,.F.);
#361=ORIENTED_EDGE('',*,*,#444,.T.);
#362=ORIENTED_EDGE('',*,*,#566,.T.);
#363=ORIENTED_EDGE('',*,*,#426,.F.);
#364=ORIENTED_EDGE('',*,*,#567,.F.);
#365=ORIENTED_EDGE('',*,*,#445,.T.);
#366=ORIENTED_EDGE('',*,*,#565,.T.);
#367=ORIENTED_EDGE('',*,*,#425,.T.);
#368=ORIENTED_EDGE('',*,*,#568,.F.);
#369=ORIENTED_EDGE('',*,*,#446,.F.);
#370=ORIENTED_EDGE('',*,*,#567,.T.);
#371=ORIENTED_EDGE('',*,*,#424,.T.);
#372=ORIENTED_EDGE('',*,*,#566,.F.);
#373=ORIENTED_EDGE('',*,*,#443,.F.);
#374=ORIENTED_EDGE('',*,*,#568,.T.);
#375=ORIENTED_EDGE('',*,*,#407,.F.);
#376=ORIENTED_EDGE('',*,*,#569,.F.);
#377=ORIENTED_EDGE('',*,*,#448,.T.);
#378=ORIENTED_EDGE('',*,*,#570,.T.);
#379=ORIENTED_EDGE('',*,*,#410,.F.);
#380=ORIENTED_EDGE('',*,*,#571,.F.);
#381=ORIENTED_EDGE('',*,*,#449,.T.);
#382=ORIENTED_EDGE('',*,*,#569,.T.);
#383=ORIENTED_EDGE('',*,*,#409,.T.);
#384=ORIENTED_EDGE('',*,*,#572,.F.);
#385=ORIENTED_EDGE('',*,*,#450,.F.);
#386=ORIENTED_EDGE('',*,*,#571,.T.);
#387=ORIENTED_EDGE('',*,*,#408,.T.);
#388=ORIENTED_EDGE('',*,*,#570,.F.);
#389=ORIENTED_EDGE('',*,*,#447,.F.);
#390=ORIENTED_EDGE('',*,*,#572,.T.);
#391=ORIENTED_EDGE('',*,*,#427,.F.);
#392=ORIENTED_EDGE('',*,*,#573,.F.);
#393=ORIENTED_EDGE('',*,*,#452,.T.);
#394=ORIENTED_EDGE('',*,*,#574,.T.);
#395=ORIENTED_EDGE('',*,*,#430,.T.);
#396=ORIENTED_EDGE('',*,*,#575,.F.);
#397=ORIENTED_EDGE('',*,*,#453,.F.);
#398=ORIENTED_EDGE('',*,*,#573,.T.);
#399=ORIENTED_EDGE('',*,*,#429,.T.);
#400=ORIENTED_EDGE('',*,*,#576,.F.);
#401=ORIENTED_EDGE('',*,*,#454,.F.);
#402=ORIENTED_EDGE('',*,*,#575,.T.);
#403=ORIENTED_EDGE('',*,*,#428,.F.);
#404=ORIENTED_EDGE('',*,*,#574,.F.);
#405=ORIENTED_EDGE('',*,*,#451,.T.);
#406=ORIENTED_EDGE('',*,*,#576,.T.);
#407=EDGE_CURVE('',#577,#578,#687,.T.);
#408=EDGE_CURVE('',#579,#578,#688,.T.);
#409=EDGE_CURVE('',#580,#579,#689,.T.);
#410=EDGE_CURVE('',#580,#577,#690,.T.);
#411=EDGE_CURVE('',#581,#582,#691,.T.);
#412=EDGE_CURVE('',#583,#582,#692,.T.);
#413=EDGE_CURVE('',#584,#583,#693,.T.);
#414=EDGE_CURVE('',#584,#581,#694,.T.);
#415=EDGE_CURVE('',#585,#586,#695,.T.);
#416=EDGE_CURVE('',#585,#587,#696,.T.);
#417=EDGE_CURVE('',#587,#588,#697,.T.);
#418=EDGE_CURVE('',#588,#586,#698,.F.);
#419=EDGE_CURVE('',#589,#590,#699,.T.);
#420=EDGE_CURVE('',#590,#591,#700,.T.);
#421=EDGE_CURVE('',#592,#591,#701,.T.);
#422=EDGE_CURVE('',#589,#592,#702,.T.);
#423=EDGE_CURVE('',#593,#594,#703,.T.);
#424=EDGE_CURVE('',#595,#594,#704,.T.);
#425=EDGE_CURVE('',#596,#595,#705,.T.);
#426=EDGE_CURVE('',#596,#593,#706,.T.);
#427=EDGE_CURVE('',#597,#598,#707,.T.);
#428=EDGE_CURVE('',#598,#599,#708,.T.);
#429=EDGE_CURVE('',#600,#599,#709,.T.);
#430=EDGE_CURVE('',#597,#600,#710,.T.);
#431=EDGE_CURVE('',#601,#602,#711,.T.);
#432=EDGE_CURVE('',#603,#601,#712,.T.);
#433=EDGE_CURVE('',#603,#604,#713,.T.);
#434=EDGE_CURVE('',#604,#602,#714,.T.);
#435=EDGE_CURVE('',#605,#606,#715,.T.);
#436=EDGE_CURVE('',#607,#605,#716,.T.);
#437=EDGE_CURVE('',#607,#608,#717,.T.);
#438=EDGE_CURVE('',#608,#606,#718,.T.);
#439=EDGE_CURVE('',#609,#610,#719,.T.);
#440=EDGE_CURVE('',#611,#610,#720,.T.);
#441=EDGE_CURVE('',#612,#611,#721,.T.);
#442=EDGE_CURVE('',#612,#609,#722,.T.);
#443=EDGE_CURVE('',#613,#614,#723,.T.);
#444=EDGE_CURVE('',#615,#614,#724,.T.);
#445=EDGE_CURVE('',#616,#615,#725,.T.);
#446=EDGE_CURVE('',#616,#613,#726,.T.);
#447=EDGE_CURVE('',#617,#618,#727,.T.);
#448=EDGE_CURVE('',#619,#618,#728,.T.);
#449=EDGE_CURVE('',#620,#619,#729,.T.);
#450=EDGE_CURVE('',#620,#617,#730,.T.);
#451=EDGE_CURVE('',#621,#622,#731,.T.);
#452=EDGE_CURVE('',#623,#621,#732,.T.);
#453=EDGE_CURVE('',#623,#624,#733,.T.);
#454=EDGE_CURVE('',#624,#622,#734,.T.);
#455=EDGE_CURVE('',#625,#626,#735,.T.);
#456=EDGE_CURVE('',#626,#627,#736,.F.);
#457=EDGE_CURVE('',#628,#627,#737,.T.);
#458=EDGE_CURVE('',#628,#625,#738,.T.);
#459=EDGE_CURVE('',#629,#629,#33,.T.);
#460=EDGE_CURVE('',#630,#631,#34,.T.);
#461=EDGE_CURVE('',#630,#632,#739,.T.);
#462=EDGE_CURVE('',#633,#632,#35,.T.);
#463=EDGE_CURVE('',#633,#634,#740,.T.);
#464=EDGE_CURVE('',#635,#634,#36,.T.);
#465=EDGE_CURVE('',#636,#635,#741,.T.);
#466=EDGE_CURVE('',#637,#636,#37,.T.);
#467=EDGE_CURVE('',#631,#637,#742,.T.);
#468=EDGE_CURVE('',#638,#638,#38,.T.);
#469=EDGE_CURVE('',#639,#601,#743,.T.);
#470=EDGE_CURVE('',#640,#639,#744,.T.);
#471=EDGE_CURVE('',#640,#603,#745,.T.);
#472=EDGE_CURVE('',#641,#642,#39,.T.);
#473=EDGE_CURVE('',#641,#643,#746,.T.);
#474=EDGE_CURVE('',#644,#643,#40,.T.);
#475=EDGE_CURVE('',#645,#644,#747,.T.);
#476=EDGE_CURVE('',#646,#645,#41,.T.);
#477=EDGE_CURVE('',#647,#646,#748,.T.);
#478=EDGE_CURVE('',#648,#647,#42,.T.);
#479=EDGE_CURVE('',#648,#642,#749,.T.);
#480=EDGE_CURVE('',#649,#650,#750,.T.);
#481=EDGE_CURVE('',#650,#651,#751,.T.);
#482=EDGE_CURVE('',#652,#651,#752,.T.);
#483=EDGE_CURVE('',#649,#652,#753,.T.);
#484=EDGE_CURVE('',#639,#653,#754,.T.);
#485=EDGE_CURVE('',#653,#602,#755,.T.);
#486=EDGE_CURVE('',#654,#655,#756,.T.);
#487=EDGE_CURVE('',#650,#655,#757,.T.);
#488=EDGE_CURVE('',#649,#654,#758,.T.);
#489=EDGE_CURVE('',#654,#656,#759,.T.);
#490=EDGE_CURVE('',#652,#656,#760,.T.);
#491=EDGE_CURVE('',#656,#657,#761,.T.);
#492=EDGE_CURVE('',#651,#657,#762,.T.);
#493=EDGE_CURVE('',#658,#659,#43,.T.);
#494=EDGE_CURVE('',#658,#660,#763,.T.);
#495=EDGE_CURVE('',#661,#660,#44,.T.);
#496=EDGE_CURVE('',#661,#662,#764,.T.);
#497=EDGE_CURVE('',#663,#662,#45,.T.);
#498=EDGE_CURVE('',#664,#663,#765,.T.);
#499=EDGE_CURVE('',#665,#664,#46,.T.);
#500=EDGE_CURVE('',#659,#665,#766,.T.);
#501=EDGE_CURVE('',#666,#667,#767,.F.);
#502=EDGE_CURVE('',#667,#668,#768,.F.);
#503=EDGE_CURVE('',#668,#669,#769,.T.);
#504=EDGE_CURVE('',#669,#666,#770,.T.);
#505=EDGE_CURVE('',#670,#671,#771,.T.);
#506=EDGE_CURVE('',#671,#672,#772,.T.);
#507=EDGE_CURVE('',#672,#673,#773,.F.);
#508=EDGE_CURVE('',#673,#670,#774,.F.);
#509=EDGE_CURVE('',#655,#657,#775,.T.);
#510=EDGE_CURVE('',#674,#675,#776,.F.);
#511=EDGE_CURVE('',#675,#676,#777,.F.);
#512=EDGE_CURVE('',#676,#677,#778,.T.);
#513=EDGE_CURVE('',#677,#674,#779,.T.);
#514=EDGE_CURVE('',#678,#679,#780,.T.);
#515=EDGE_CURVE('',#678,#680,#47,.T.);
#516=EDGE_CURVE('',#681,#680,#781,.T.);
#517=EDGE_CURVE('',#681,#682,#48,.T.);
#518=EDGE_CURVE('',#682,#683,#782,.T.);
#519=EDGE_CURVE('',#683,#684,#49,.T.);
#520=EDGE_CURVE('',#684,#685,#783,.T.);
#521=EDGE_CURVE('',#685,#679,#50,.T.);
#522=EDGE_CURVE('',#686,#653,#784,.T.);
#523=EDGE_CURVE('',#640,#686,#785,.T.);
#524=EDGE_CURVE('',#686,#604,#786,.T.);
#525=EDGE_CURVE('',#627,#585,#51,.F.);
#526=EDGE_CURVE('',#586,#671,#52,.F.);
#527=EDGE_CURVE('',#670,#669,#53,.F.);
#528=EDGE_CURVE('',#668,#628,#54,.F.);
#529=EDGE_CURVE('',#666,#673,#55,.T.);
#530=EDGE_CURVE('',#666,#677,#56,.F.);
#531=EDGE_CURVE('',#677,#673,#57,.F.);
#532=EDGE_CURVE('',#672,#588,#58,.T.);
#533=EDGE_CURVE('',#674,#672,#59,.T.);
#534=EDGE_CURVE('',#667,#676,#60,.T.);
#535=EDGE_CURVE('',#625,#667,#61,.T.);
#536=EDGE_CURVE('',#674,#588,#62,.F.);
#537=EDGE_CURVE('',#625,#676,#63,.F.);
#538=EDGE_CURVE('',#675,#587,#64,.T.);
#539=EDGE_CURVE('',#626,#675,#65,.T.);
#540=EDGE_CURVE('',#626,#587,#66,.F.);
#541=EDGE_CURVE('',#641,#632,#787,.T.);
#542=EDGE_CURVE('',#643,#630,#788,.T.);
#543=EDGE_CURVE('',#644,#631,#789,.T.);
#544=EDGE_CURVE('',#645,#637,#790,.T.);
#545=EDGE_CURVE('',#646,#636,#791,.T.);
#546=EDGE_CURVE('',#647,#635,#792,.T.);
#547=EDGE_CURVE('',#648,#634,#793,.T.);
#548=EDGE_CURVE('',#642,#633,#794,.T.);
#549=EDGE_CURVE('',#681,#658,#795,.T.);
#550=EDGE_CURVE('',#680,#660,#796,.T.);
#551=EDGE_CURVE('',#682,#659,#797,.T.);
#552=EDGE_CURVE('',#683,#665,#798,.T.);
#553=EDGE_CURVE('',#684,#664,#799,.T.);
#554=EDGE_CURVE('',#685,#663,#800,.T.);
#555=EDGE_CURVE('',#679,#662,#801,.T.);
#556=EDGE_CURVE('',#678,#661,#802,.T.);
#557=EDGE_CURVE('',#607,#589,#803,.T.);
#558=EDGE_CURVE('',#605,#590,#804,.T.);
#559=EDGE_CURVE('',#608,#592,#805,.T.);
#560=EDGE_CURVE('',#606,#591,#806,.T.);
#561=EDGE_CURVE('',#611,#581,#807,.T.);
#562=EDGE_CURVE('',#610,#582,#808,.T.);
#563=EDGE_CURVE('',#612,#584,#809,.T.);
#564=EDGE_CURVE('',#609,#583,#810,.T.);
#565=EDGE_CURVE('',#615,#593,#811,.T.);
#566=EDGE_CURVE('',#614,#594,#812,.T.);
#567=EDGE_CURVE('',#616,#596,#813,.T.);
#568=EDGE_CURVE('',#613,#595,#814,.T.);
#569=EDGE_CURVE('',#619,#577,#815,.T.);
#570=EDGE_CURVE('',#618,#578,#816,.T.);
#571=EDGE_CURVE('',#620,#580,#817,.T.);
#572=EDGE_CURVE('',#617,#579,#818,.T.);
#573=EDGE_CURVE('',#623,#597,#819,.T.);
#574=EDGE_CURVE('',#621,#598,#820,.T.);
#575=EDGE_CURVE('',#624,#600,#821,.T.);
#576=EDGE_CURVE('',#622,#599,#822,.T.);
#577=VERTEX_POINT('',#1682);
#578=VERTEX_POINT('',#1683);
#579=VERTEX_POINT('',#1685);
#580=VERTEX_POINT('',#1687);
#581=VERTEX_POINT('',#1690);
#582=VERTEX_POINT('',#1691);
#583=VERTEX_POINT('',#1693);
#584=VERTEX_POINT('',#1695);
#585=VERTEX_POINT('',#1698);
#586=VERTEX_POINT('',#1699);
#587=VERTEX_POINT('',#1701);
#588=VERTEX_POINT('',#1703);
#589=VERTEX_POINT('',#1706);
#590=VERTEX_POINT('',#1707);
#591=VERTEX_POINT('',#1709);
#592=VERTEX_POINT('',#1711);
#593=VERTEX_POINT('',#1714);
#594=VERTEX_POINT('',#1715);
#595=VERTEX_POINT('',#1717);
#596=VERTEX_POINT('',#1719);
#597=VERTEX_POINT('',#1722);
#598=VERTEX_POINT('',#1723);
#599=VERTEX_POINT('',#1725);
#600=VERTEX_POINT('',#1727);
#601=VERTEX_POINT('',#1731);
#602=VERTEX_POINT('',#1732);
#603=VERTEX_POINT('',#1734);
#604=VERTEX_POINT('',#1736);
#605=VERTEX_POINT('',#1739);
#606=VERTEX_POINT('',#1740);
#607=VERTEX_POINT('',#1742);
#608=VERTEX_POINT('',#1744);
#609=VERTEX_POINT('',#1747);
#610=VERTEX_POINT('',#1748);
#611=VERTEX_POINT('',#1750);
#612=VERTEX_POINT('',#1752);
#613=VERTEX_POINT('',#1755);
#614=VERTEX_POINT('',#1756);
#615=VERTEX_POINT('',#1758);
#616=VERTEX_POINT('',#1760);
#617=VERTEX_POINT('',#1763);
#618=VERTEX_POINT('',#1764);
#619=VERTEX_POINT('',#1766);
#620=VERTEX_POINT('',#1768);
#621=VERTEX_POINT('',#1771);
#622=VERTEX_POINT('',#1772);
#623=VERTEX_POINT('',#1774);
#624=VERTEX_POINT('',#1776);
#625=VERTEX_POINT('',#1780);
#626=VERTEX_POINT('',#1781);
#627=VERTEX_POINT('',#1783);
#628=VERTEX_POINT('',#1785);
#629=VERTEX_POINT('',#1788);
#630=VERTEX_POINT('',#1790);
#631=VERTEX_POINT('',#1791);
#632=VERTEX_POINT('',#1793);
#633=VERTEX_POINT('',#1795);
#634=VERTEX_POINT('',#1797);
#635=VERTEX_POINT('',#1799);
#636=VERTEX_POINT('',#1801);
#637=VERTEX_POINT('',#1803);
#638=VERTEX_POINT('',#1807);
#639=VERTEX_POINT('',#1809);
#640=VERTEX_POINT('',#1811);
#641=VERTEX_POINT('',#1814);
#642=VERTEX_POINT('',#1815);
#643=VERTEX_POINT('',#1817);
#644=VERTEX_POINT('',#1819);
#645=VERTEX_POINT('',#1821);
#646=VERTEX_POINT('',#1823);
#647=VERTEX_POINT('',#1825);
#648=VERTEX_POINT('',#1827);
#649=VERTEX_POINT('',#1831);
#650=VERTEX_POINT('',#1832);
#651=VERTEX_POINT('',#1834);
#652=VERTEX_POINT('',#1836);
#653=VERTEX_POINT('',#1839);
#654=VERTEX_POINT('',#1843);
#655=VERTEX_POINT('',#1844);
#656=VERTEX_POINT('',#1849);
#657=VERTEX_POINT('',#1853);
#658=VERTEX_POINT('',#1857);
#659=VERTEX_POINT('',#1858);
#660=VERTEX_POINT('',#1860);
#661=VERTEX_POINT('',#1862);
#662=VERTEX_POINT('',#1864);
#663=VERTEX_POINT('',#1866);
#664=VERTEX_POINT('',#1868);
#665=VERTEX_POINT('',#1870);
#666=VERTEX_POINT('',#1873);
#667=VERTEX_POINT('',#1874);
#668=VERTEX_POINT('',#1876);
#669=VERTEX_POINT('',#1878);
#670=VERTEX_POINT('',#1882);
#671=VERTEX_POINT('',#1883);
#672=VERTEX_POINT('',#1885);
#673=VERTEX_POINT('',#1887);
#674=VERTEX_POINT('',#1893);
#675=VERTEX_POINT('',#1894);
#676=VERTEX_POINT('',#1896);
#677=VERTEX_POINT('',#1898);
#678=VERTEX_POINT('',#1902);
#679=VERTEX_POINT('',#1903);
#680=VERTEX_POINT('',#1905);
#681=VERTEX_POINT('',#1907);
#682=VERTEX_POINT('',#1909);
#683=VERTEX_POINT('',#1911);
#684=VERTEX_POINT('',#1913);
#685=VERTEX_POINT('',#1915);
#686=VERTEX_POINT('',#1918);
#687=LINE('',#1681,#823);
#688=LINE('',#1684,#824);
#689=LINE('',#1686,#825);
#690=LINE('',#1688,#826);
#691=LINE('',#1689,#827);
#692=LINE('',#1692,#828);
#693=LINE('',#1694,#829);
#694=LINE('',#1696,#830);
#695=LINE('',#1697,#831);
#696=LINE('',#1700,#832);
#697=LINE('',#1702,#833);
#698=LINE('',#1704,#834);
#699=LINE('',#1705,#835);
#700=LINE('',#1708,#836);
#701=LINE('',#1710,#837);
#702=LINE('',#1712,#838);
#703=LINE('',#1713,#839);
#704=LINE('',#1716,#840);
#705=LINE('',#1718,#841);
#706=LINE('',#1720,#842);
#707=LINE('',#1721,#843);
#708=LINE('',#1724,#844);
#709=LINE('',#1726,#845);
#710=LINE('',#1728,#846);
#711=LINE('',#1730,#847);
#712=LINE('',#1733,#848);
#713=LINE('',#1735,#849);
#714=LINE('',#1737,#850);
#715=LINE('',#1738,#851);
#716=LINE('',#1741,#852);
#717=LINE('',#1743,#853);
#718=LINE('',#1745,#854);
#719=LINE('',#1746,#855);
#720=LINE('',#1749,#856);
#721=LINE('',#1751,#857);
#722=LINE('',#1753,#858);
#723=LINE('',#1754,#859);
#724=LINE('',#1757,#860);
#725=LINE('',#1759,#861);
#726=LINE('',#1761,#862);
#727=LINE('',#1762,#863);
#728=LINE('',#1765,#864);
#729=LINE('',#1767,#865);
#730=LINE('',#1769,#866);
#731=LINE('',#1770,#867);
#732=LINE('',#1773,#868);
#733=LINE('',#1775,#869);
#734=LINE('',#1777,#870);
#735=LINE('',#1779,#871);
#736=LINE('',#1782,#872);
#737=LINE('',#1784,#873);
#738=LINE('',#1786,#874);
#739=LINE('',#1792,#875);
#740=LINE('',#1796,#876);
#741=LINE('',#1800,#877);
#742=LINE('',#1804,#878);
#743=LINE('',#1808,#879);
#744=LINE('',#1810,#880);
#745=LINE('',#1812,#881);
#746=LINE('',#1816,#882);
#747=LINE('',#1820,#883);
#748=LINE('',#1824,#884);
#749=LINE('',#1828,#885);
#750=LINE('',#1830,#886);
#751=LINE('',#1833,#887);
#752=LINE('',#1835,#888);
#753=LINE('',#1837,#889);
#754=LINE('',#1838,#890);
#755=LINE('',#1840,#891);
#756=LINE('',#1842,#892);
#757=LINE('',#1845,#893);
#758=LINE('',#1846,#894);
#759=LINE('',#1848,#895);
#760=LINE('',#1850,#896);
#761=LINE('',#1852,#897);
#762=LINE('',#1854,#898);
#763=LINE('',#1859,#899);
#764=LINE('',#1863,#900);
#765=LINE('',#1867,#901);
#766=LINE('',#1871,#902);
#767=LINE('',#1872,#903);
#768=LINE('',#1875,#904);
#769=LINE('',#1877,#905);
#770=LINE('',#1879,#906);
#771=LINE('',#1881,#907);
#772=LINE('',#1884,#908);
#773=LINE('',#1886,#909);
#774=LINE('',#1888,#910);
#775=LINE('',#1890,#911);
#776=LINE('',#1892,#912);
#777=LINE('',#1895,#913);
#778=LINE('',#1897,#914);
#779=LINE('',#1899,#915);
#780=LINE('',#1901,#916);
#781=LINE('',#1906,#917);
#782=LINE('',#1910,#918);
#783=LINE('',#1914,#919);
#784=LINE('',#1917,#920);
#785=LINE('',#1919,#921);
#786=LINE('',#1921,#922);
#787=LINE('',#1952,#923);
#788=LINE('',#1953,#924);
#789=LINE('',#1955,#925);
#790=LINE('',#1957,#926);
#791=LINE('',#1959,#927);
#792=LINE('',#1961,#928);
#793=LINE('',#1963,#929);
#794=LINE('',#1965,#930);
#795=LINE('',#1969,#931);
#796=LINE('',#1970,#932);
#797=LINE('',#1972,#933);
#798=LINE('',#1974,#934);
#799=LINE('',#1976,#935);
#800=LINE('',#1978,#936);
#801=LINE('',#1980,#937);
#802=LINE('',#1982,#938);
#803=LINE('',#1985,#939);
#804=LINE('',#1986,#940);
#805=LINE('',#1988,#941);
#806=LINE('',#1990,#942);
#807=LINE('',#1993,#943);
#808=LINE('',#1994,#944);
#809=LINE('',#1996,#945);
#810=LINE('',#1998,#946);
#811=LINE('',#2001,#947);
#812=LINE('',#2002,#948);
#813=LINE('',#2004,#949);
#814=LINE('',#2006,#950);
#815=LINE('',#2009,#951);
#816=LINE('',#2010,#952);
#817=LINE('',#2012,#953);
#818=LINE('',#2014,#954);
#819=LINE('',#2017,#955);
#820=LINE('',#2018,#956);
#821=LINE('',#2020,#957);
#822=LINE('',#2022,#958);
#823=VECTOR('',#1349,1.);
#824=VECTOR('',#1350,1.);
#825=VECTOR('',#1351,1.);
#826=VECTOR('',#1352,1.);
#827=VECTOR('',#1353,1.);
#828=VECTOR('',#1354,1.);
#829=VECTOR('',#1355,1.);
#830=VECTOR('',#1356,1.);
#831=VECTOR('',#1357,1.);
#832=VECTOR('',#1358,1.);
#833=VECTOR('',#1359,1.);
#834=VECTOR('',#1360,1.);
#835=VECTOR('',#1361,1.);
#836=VECTOR('',#1362,1.);
#837=VECTOR('',#1363,1.);
#838=VECTOR('',#1364,1.);
#839=VECTOR('',#1365,1.);
#840=VECTOR('',#1366,1.);
#841=VECTOR('',#1367,1.);
#842=VECTOR('',#1368,1.);
#843=VECTOR('',#1369,1.);
#844=VECTOR('',#1370,1.);
#845=VECTOR('',#1371,1.);
#846=VECTOR('',#1372,1.);
#847=VECTOR('',#1375,1.);
#848=VECTOR('',#1376,1.);
#849=VECTOR('',#1377,1.);
#850=VECTOR('',#1378,1.);
#851=VECTOR('',#1379,1.);
#852=VECTOR('',#1380,1.);
#853=VECTOR('',#1381,1.);
#854=VECTOR('',#1382,1.);
#855=VECTOR('',#1383,1.);
#856=VECTOR('',#1384,1.);
#857=VECTOR('',#1385,1.);
#858=VECTOR('',#1386,1.);
#859=VECTOR('',#1387,1.);
#860=VECTOR('',#1388,1.);
#861=VECTOR('',#1389,1.);
#862=VECTOR('',#1390,1.);
#863=VECTOR('',#1391,1.);
#864=VECTOR('',#1392,1.);
#865=VECTOR('',#1393,1.);
#866=VECTOR('',#1394,1.);
#867=VECTOR('',#1395,1.);
#868=VECTOR('',#1396,1.);
#869=VECTOR('',#1397,1.);
#870=VECTOR('',#1398,1.);
#871=VECTOR('',#1401,1.);
#872=VECTOR('',#1402,1.);
#873=VECTOR('',#1403,1.);
#874=VECTOR('',#1404,1.);
#875=VECTOR('',#1409,1.);
#876=VECTOR('',#1412,1.);
#877=VECTOR('',#1415,1.);
#878=VECTOR('',#1418,1.);
#879=VECTOR('',#1423,1.);
#880=VECTOR('',#1424,1.);
#881=VECTOR('',#1425,1.);
#882=VECTOR('',#1428,1.);
#883=VECTOR('',#1431,1.);
#884=VECTOR('',#1434,1.);
#885=VECTOR('',#1437,1.);
#886=VECTOR('',#1440,1.);
#887=VECTOR('',#1441,1.);
#888=VECTOR('',#1442,1.);
#889=VECTOR('',#1443,1.);
#890=VECTOR('',#1444,1.);
#891=VECTOR('',#1445,1.);
#892=VECTOR('',#1448,1.);
#893=VECTOR('',#1449,1.);
#894=VECTOR('',#1450,1.);
#895=VECTOR('',#1453,1.);
#896=VECTOR('',#1454,1.);
#897=VECTOR('',#1457,1.);
#898=VECTOR('',#1458,1.);
#899=VECTOR('',#1463,1.);
#900=VECTOR('',#1466,1.);
#901=VECTOR('',#1469,1.);
#902=VECTOR('',#1472,1.);
#903=VECTOR('',#1473,1.);
#904=VECTOR('',#1474,1.);
#905=VECTOR('',#1475,1.);
#906=VECTOR('',#1476,1.);
#907=VECTOR('',#1479,1.);
#908=VECTOR('',#1480,1.);
#909=VECTOR('',#1481,1.);
#910=VECTOR('',#1482,1.);
#911=VECTOR('',#1485,1.);
#912=VECTOR('',#1488,1.);
#913=VECTOR('',#1489,1.);
#914=VECTOR('',#1490,1.);
#915=VECTOR('',#1491,1.);
#916=VECTOR('',#1494,1.);
#917=VECTOR('',#1497,1.);
#918=VECTOR('',#1500,1.);
#919=VECTOR('',#1503,1.);
#920=VECTOR('',#1506,1.);
#921=VECTOR('',#1507,1.);
#922=VECTOR('',#1510,1.);
#923=VECTOR('',#1571,1.);
#924=VECTOR('',#1572,1.);
#925=VECTOR('',#1575,1.);
#926=VECTOR('',#1578,1.);
#927=VECTOR('',#1581,1.);
#928=VECTOR('',#1584,1.);
#929=VECTOR('',#1587,1.);
#930=VECTOR('',#1590,1.);
#931=VECTOR('',#1597,1.);
#932=VECTOR('',#1598,1.);
#933=VECTOR('',#1601,1.);
#934=VECTOR('',#1604,1.);
#935=VECTOR('',#1607,1.);
#936=VECTOR('',#1610,1.);
#937=VECTOR('',#1613,1.);
#938=VECTOR('',#1616,1.);
#939=VECTOR('',#1621,1.);
#940=VECTOR('',#1622,1.);
#941=VECTOR('',#1625,1.);
#942=VECTOR('',#1628,1.);
#943=VECTOR('',#1633,1.);
#944=VECTOR('',#1634,1.);
#945=VECTOR('',#1637,1.);
#946=VECTOR('',#1640,1.);
#947=VECTOR('',#1645,1.);
#948=VECTOR('',#1646,1.);
#949=VECTOR('',#1649,1.);
#950=VECTOR('',#1652,1.);
#951=VECTOR('',#1657,1.);
#952=VECTOR('',#1658,1.);
#953=VECTOR('',#1661,1.);
#954=VECTOR('',#1664,1.);
#955=VECTOR('',#1669,1.);
#956=VECTOR('',#1670,1.);
#957=VECTOR('',#1673,1.);
#958=VECTOR('',#1676,1.);
#959=EDGE_LOOP('',(#67,#68,#69,#70));
#960=EDGE_LOOP('',(#71,#72,#73,#74));
#961=EDGE_LOOP('',(#75,#76,#77,#78));
#962=EDGE_LOOP('',(#79,#80,#81,#82));
#963=EDGE_LOOP('',(#83,#84,#85,#86));
#964=EDGE_LOOP('',(#87,#88,#89,#90));
#965=EDGE_LOOP('',(#91,#92,#93,#94));
#966=EDGE_LOOP('',(#95,#96,#97,#98));
#967=EDGE_LOOP('',(#99,#100,#101,#102));
#968=EDGE_LOOP('',(#103,#104,#105,#106));
#969=EDGE_LOOP('',(#107,#108,#109,#110));
#970=EDGE_LOOP('',(#111,#112,#113,#114));
#971=EDGE_LOOP('',(#115,#116,#117,#118));
#972=EDGE_LOOP('',(#119));
#973=EDGE_LOOP('',(#120,#121,#122,#123,#124,#125,#126,#127));
#974=EDGE_LOOP('',(#128));
#975=EDGE_LOOP('',(#129,#130,#131,#132));
#976=EDGE_LOOP('',(#133,#134,#135,#136,#137,#138,#139,#140));
#977=EDGE_LOOP('',(#141,#142,#143,#144));
#978=EDGE_LOOP('',(#145,#146,#147,#148));
#979=EDGE_LOOP('',(#149,#150,#151,#152));
#980=EDGE_LOOP('',(#153,#154,#155,#156));
#981=EDGE_LOOP('',(#157,#158,#159,#160));
#982=EDGE_LOOP('',(#161,#162,#163,#164,#165,#166,#167,#168));
#983=EDGE_LOOP('',(#169,#170,#171,#172));
#984=EDGE_LOOP('',(#173,#174,#175,#176));
#985=EDGE_LOOP('',(#177,#178,#179,#180));
#986=EDGE_LOOP('',(#181,#182,#183,#184));
#987=EDGE_LOOP('',(#185,#186,#187,#188));
#988=EDGE_LOOP('',(#189,#190,#191,#192,#193,#194,#195,#196));
#989=EDGE_LOOP('',(#197,#198,#199,#200));
#990=EDGE_LOOP('',(#201,#202,#203,#204));
#991=EDGE_LOOP('',(#205,#206,#207,#208));
#992=EDGE_LOOP('',(#209,#210,#211,#212,#213,#214,#215,#216));
#993=EDGE_LOOP('',(#217,#218,#219,#220));
#994=EDGE_LOOP('',(#221,#222,#223));
#995=EDGE_LOOP('',(#224,#225,#226,#227));
#996=EDGE_LOOP('',(#228,#229,#230,#231));
#997=EDGE_LOOP('',(#232,#233,#234,#235));
#998=EDGE_LOOP('',(#236,#237,#238,#239));
#999=EDGE_LOOP('',(#240,#241,#242));
#1000=EDGE_LOOP('',(#243,#244,#245));
#1001=EDGE_LOOP('',(#246,#247,#248,#249));
#1002=EDGE_LOOP('',(#250,#251,#252,#253));
#1003=EDGE_LOOP('',(#254,#255,#256));
#1004=EDGE_LOOP('',(#257,#258,#259,#260));
#1005=EDGE_LOOP('',(#261,#262,#263,#264));
#1006=EDGE_LOOP('',(#265,#266,#267,#268));
#1007=EDGE_LOOP('',(#269,#270,#271,#272));
#1008=EDGE_LOOP('',(#273,#274,#275,#276));
#1009=EDGE_LOOP('',(#277,#278,#279,#280));
#1010=EDGE_LOOP('',(#281,#282,#283,#284));
#1011=EDGE_LOOP('',(#285,#286,#287,#288));
#1012=EDGE_LOOP('',(#289,#290,#291,#292));
#1013=EDGE_LOOP('',(#293));
#1014=EDGE_LOOP('',(#294));
#1015=EDGE_LOOP('',(#295,#296,#297,#298));
#1016=EDGE_LOOP('',(#299,#300,#301,#302));
#1017=EDGE_LOOP('',(#303,#304,#305,#306));
#1018=EDGE_LOOP('',(#307,#308,#309,#310));
#1019=EDGE_LOOP('',(#311,#312,#313,#314));
#1020=EDGE_LOOP('',(#315,#316,#317,#318));
#1021=EDGE_LOOP('',(#319,#320,#321,#322));
#1022=EDGE_LOOP('',(#323,#324,#325,#326));
#1023=EDGE_LOOP('',(#327,#328,#329,#330));
#1024=EDGE_LOOP('',(#331,#332,#333,#334));
#1025=EDGE_LOOP('',(#335,#336,#337,#338));
#1026=EDGE_LOOP('',(#339,#340,#341,#342));
#1027=EDGE_LOOP('',(#343,#344,#345,#346));
#1028=EDGE_LOOP('',(#347,#348,#349,#350));
#1029=EDGE_LOOP('',(#351,#352,#353,#354));
#1030=EDGE_LOOP('',(#355,#356,#357,#358));
#1031=EDGE_LOOP('',(#359,#360,#361,#362));
#1032=EDGE_LOOP('',(#363,#364,#365,#366));
#1033=EDGE_LOOP('',(#367,#368,#369,#370));
#1034=EDGE_LOOP('',(#371,#372,#373,#374));
#1035=EDGE_LOOP('',(#375,#376,#377,#378));
#1036=EDGE_LOOP('',(#379,#380,#381,#382));
#1037=EDGE_LOOP('',(#383,#384,#385,#386));
#1038=EDGE_LOOP('',(#387,#388,#389,#390));
#1039=EDGE_LOOP('',(#391,#392,#393,#394));
#1040=EDGE_LOOP('',(#395,#396,#397,#398));
#1041=EDGE_LOOP('',(#399,#400,#401,#402));
#1042=EDGE_LOOP('',(#403,#404,#405,#406));
#1043=FACE_BOUND('',#959,.T.);
#1044=FACE_BOUND('',#960,.T.);
#1045=FACE_BOUND('',#961,.T.);
#1046=FACE_BOUND('',#962,.T.);
#1047=FACE_BOUND('',#963,.T.);
#1048=FACE_BOUND('',#964,.T.);
#1049=FACE_BOUND('',#965,.T.);
#1050=FACE_BOUND('',#966,.T.);
#1051=FACE_BOUND('',#967,.T.);
#1052=FACE_BOUND('',#968,.T.);
#1053=FACE_BOUND('',#969,.T.);
#1054=FACE_BOUND('',#970,.T.);
#1055=FACE_BOUND('',#971,.T.);
#1056=FACE_BOUND('',#972,.T.);
#1057=FACE_BOUND('',#973,.T.);
#1058=FACE_BOUND('',#974,.T.);
#1059=FACE_BOUND('',#975,.T.);
#1060=FACE_BOUND('',#976,.T.);
#1061=FACE_BOUND('',#977,.T.);
#1062=FACE_BOUND('',#978,.T.);
#1063=FACE_BOUND('',#979,.T.);
#1064=FACE_BOUND('',#980,.T.);
#1065=FACE_BOUND('',#981,.T.);
#1066=FACE_BOUND('',#982,.T.);
#1067=FACE_BOUND('',#983,.T.);
#1068=FACE_BOUND('',#984,.T.);
#1069=FACE_BOUND('',#985,.T.);
#1070=FACE_BOUND('',#986,.T.);
#1071=FACE_BOUND('',#987,.T.);
#1072=FACE_BOUND('',#988,.T.);
#1073=FACE_BOUND('',#989,.T.);
#1074=FACE_BOUND('',#990,.T.);
#1075=FACE_BOUND('',#991,.T.);
#1076=FACE_BOUND('',#992,.T.);
#1077=FACE_BOUND('',#993,.T.);
#1078=FACE_BOUND('',#994,.T.);
#1079=FACE_BOUND('',#995,.T.);
#1080=FACE_BOUND('',#996,.T.);
#1081=FACE_BOUND('',#997,.T.);
#1082=FACE_BOUND('',#998,.T.);
#1083=FACE_BOUND('',#999,.T.);
#1084=FACE_BOUND('',#1000,.T.);
#1085=FACE_BOUND('',#1001,.T.);
#1086=FACE_BOUND('',#1002,.T.);
#1087=FACE_BOUND('',#1003,.T.);
#1088=FACE_BOUND('',#1004,.T.);
#1089=FACE_BOUND('',#1005,.T.);
#1090=FACE_BOUND('',#1006,.T.);
#1091=FACE_BOUND('',#1007,.T.);
#1092=FACE_BOUND('',#1008,.T.);
#1093=FACE_BOUND('',#1009,.T.);
#1094=FACE_BOUND('',#1010,.T.);
#1095=FACE_BOUND('',#1011,.T.);
#1096=FACE_BOUND('',#1012,.T.);
#1097=FACE_BOUND('',#1013,.T.);
#1098=FACE_BOUND('',#1014,.T.);
#1099=FACE_BOUND('',#1015,.T.);
#1100=FACE_BOUND('',#1016,.T.);
#1101=FACE_BOUND('',#1017,.T.);
#1102=FACE_BOUND('',#1018,.T.);
#1103=FACE_BOUND('',#1019,.T.);
#1104=FACE_BOUND('',#1020,.T.);
#1105=FACE_BOUND('',#1021,.T.);
#1106=FACE_BOUND('',#1022,.T.);
#1107=FACE_BOUND('',#1023,.T.);
#1108=FACE_BOUND('',#1024,.T.);
#1109=FACE_BOUND('',#1025,.T.);
#1110=FACE_BOUND('',#1026,.T.);
#1111=FACE_BOUND('',#1027,.T.);
#1112=FACE_BOUND('',#1028,.T.);
#1113=FACE_BOUND('',#1029,.T.);
#1114=FACE_BOUND('',#1030,.T.);
#1115=FACE_BOUND('',#1031,.T.);
#1116=FACE_BOUND('',#1032,.T.);
#1117=FACE_BOUND('',#1033,.T.);
#1118=FACE_BOUND('',#1034,.T.);
#1119=FACE_BOUND('',#1035,.T.);
#1120=FACE_BOUND('',#1036,.T.);
#1121=FACE_BOUND('',#1037,.T.);
#1122=FACE_BOUND('',#1038,.T.);
#1123=FACE_BOUND('',#1039,.T.);
#1124=FACE_BOUND('',#1040,.T.);
#1125=FACE_BOUND('',#1041,.T.);
#1126=FACE_BOUND('',#1042,.T.);
#1127=PLANE('',#1247);
#1128=PLANE('',#1248);
#1129=PLANE('',#1249);
#1130=PLANE('',#1255);
#1131=PLANE('',#1261);
#1132=PLANE('',#1262);
#1133=PLANE('',#1263);
#1134=PLANE('',#1264);
#1135=PLANE('',#1265);
#1136=PLANE('',#1270);
#1137=PLANE('',#1271);
#1138=PLANE('',#1272);
#1139=PLANE('',#1273);
#1140=PLANE('',#1278);
#1141=PLANE('',#1279);
#1142=PLANE('',#1308);
#1143=PLANE('',#1310);
#1144=PLANE('',#1312);
#1145=PLANE('',#1314);
#1146=PLANE('',#1317);
#1147=PLANE('',#1319);
#1148=PLANE('',#1321);
#1149=PLANE('',#1323);
#1150=PLANE('',#1325);
#1151=PLANE('',#1326);
#1152=PLANE('',#1327);
#1153=PLANE('',#1328);
#1154=PLANE('',#1329);
#1155=PLANE('',#1330);
#1156=PLANE('',#1331);
#1157=PLANE('',#1332);
#1158=PLANE('',#1333);
#1159=PLANE('',#1334);
#1160=PLANE('',#1335);
#1161=PLANE('',#1336);
#1162=PLANE('',#1337);
#1163=PLANE('',#1338);
#1164=PLANE('',#1339);
#1165=PLANE('',#1340);
#1166=PLANE('',#1341);
#1167=PLANE('',#1342);
#1168=PLANE('',#1343);
#1169=PLANE('',#1344);
#1170=ADVANCED_FACE('',(#1043,#1044,#1045,#1046,#1047,#1048),#1127,.F.);
#1171=ADVANCED_FACE('',(#1049,#1050,#1051,#1052,#1053,#1054),#1128,.T.);
#1172=ADVANCED_FACE('',(#1055,#1056,#1057),#1129,.F.);
#1173=ADVANCED_FACE('',(#1058,#1059,#1060),#1130,.T.);
#1174=ADVANCED_FACE('',(#1061,#1062),#1131,.F.);
#1175=ADVANCED_FACE('',(#1063),#1132,.F.);
#1176=ADVANCED_FACE('',(#1064),#1133,.T.);
#1177=ADVANCED_FACE('',(#1065),#1134,.T.);
#1178=ADVANCED_FACE('',(#1066,#1067),#1135,.T.);
#1179=ADVANCED_FACE('',(#1068),#1136,.T.);
#1180=ADVANCED_FACE('',(#1069),#1137,.F.);
#1181=ADVANCED_FACE('',(#1070,#1071),#1138,.T.);
#1182=ADVANCED_FACE('',(#1072,#1073),#1139,.F.);
#1183=ADVANCED_FACE('',(#1074),#1140,.F.);
#1184=ADVANCED_FACE('',(#1075,#1076),#1141,.F.);
#1185=ADVANCED_FACE('',(#1077),#16,.T.);
#1186=ADVANCED_FACE('',(#1078),#12,.T.);
#1187=ADVANCED_FACE('',(#1079),#17,.T.);
#1188=ADVANCED_FACE('',(#1080),#18,.T.);
#1189=ADVANCED_FACE('',(#1081),#19,.T.);
#1190=ADVANCED_FACE('',(#1082),#20,.T.);
#1191=ADVANCED_FACE('',(#1083),#13,.T.);
#1192=ADVANCED_FACE('',(#1084),#14,.T.);
#1193=ADVANCED_FACE('',(#1085),#21,.T.);
#1194=ADVANCED_FACE('',(#1086),#22,.T.);
#1195=ADVANCED_FACE('',(#1087),#15,.T.);
#1196=ADVANCED_FACE('',(#1088),#23,.T.);
#1197=ADVANCED_FACE('',(#1089),#1142,.T.);
#1198=ADVANCED_FACE('',(#1090),#24,.F.);
#1199=ADVANCED_FACE('',(#1091),#1143,.F.);
#1200=ADVANCED_FACE('',(#1092),#25,.F.);
#1201=ADVANCED_FACE('',(#1093),#1144,.F.);
#1202=ADVANCED_FACE('',(#1094),#26,.F.);
#1203=ADVANCED_FACE('',(#1095),#1145,.T.);
#1204=ADVANCED_FACE('',(#1096),#27,.F.);
#1205=ADVANCED_FACE('',(#1097,#1098),#28,.F.);
#1206=ADVANCED_FACE('',(#1099),#1146,.T.);
#1207=ADVANCED_FACE('',(#1100),#29,.F.);
#1208=ADVANCED_FACE('',(#1101),#1147,.F.);
#1209=ADVANCED_FACE('',(#1102),#30,.F.);
#1210=ADVANCED_FACE('',(#1103),#1148,.F.);
#1211=ADVANCED_FACE('',(#1104),#31,.F.);
#1212=ADVANCED_FACE('',(#1105),#1149,.T.);
#1213=ADVANCED_FACE('',(#1106),#32,.F.);
#1214=ADVANCED_FACE('',(#1107),#1150,.T.);
#1215=ADVANCED_FACE('',(#1108),#1151,.F.);
#1216=ADVANCED_FACE('',(#1109),#1152,.F.);
#1217=ADVANCED_FACE('',(#1110),#1153,.T.);
#1218=ADVANCED_FACE('',(#1111),#1154,.T.);
#1219=ADVANCED_FACE('',(#1112),#1155,.T.);
#1220=ADVANCED_FACE('',(#1113),#1156,.F.);
#1221=ADVANCED_FACE('',(#1114),#1157,.F.);
#1222=ADVANCED_FACE('',(#1115),#1158,.T.);
#1223=ADVANCED_FACE('',(#1116),#1159,.T.);
#1224=ADVANCED_FACE('',(#1117),#1160,.F.);
#1225=ADVANCED_FACE('',(#1118),#1161,.F.);
#1226=ADVANCED_FACE('',(#1119),#1162,.T.);
#1227=ADVANCED_FACE('',(#1120),#1163,.T.);
#1228=ADVANCED_FACE('',(#1121),#1164,.F.);
#1229=ADVANCED_FACE('',(#1122),#1165,.F.);
#1230=ADVANCED_FACE('',(#1123),#1166,.T.);
#1231=ADVANCED_FACE('',(#1124),#1167,.F.);
#1232=ADVANCED_FACE('',(#1125),#1168,.F.);
#1233=ADVANCED_FACE('',(#1126),#1169,.T.);
#1234=CLOSED_SHELL('',(#1170,#1171,#1172,#1173,#1174,#1175,#1176,#1177,
#1178,#1179,#1180,#1181,#1182,#1183,#1184,#1185,#1186,#1187,#1188,#1189,
#1190,#1191,#1192,#1193,#1194,#1195,#1196,#1197,#1198,#1199,#1200,#1201,
#1202,#1203,#1204,#1205,#1206,#1207,#1208,#1209,#1210,#1211,#1212,#1213,
#1214,#1215,#1216,#1217,#1218,#1219,#1220,#1221,#1222,#1223,#1224,#1225,
#1226,#1227,#1228,#1229,#1230,#1231,#1232,#1233));
#1235=STYLED_ITEM('',(#1236),#1243);
#1236=PRESENTATION_STYLE_ASSIGNMENT((#1237));
#1237=SURFACE_STYLE_USAGE(.BOTH.,#1238);
#1238=SURFACE_SIDE_STYLE('',(#1239));
#1239=SURFACE_STYLE_FILL_AREA(#1240);
#1240=FILL_AREA_STYLE('',(#1241));
#1241=FILL_AREA_STYLE_COLOUR('',#1242);
#1242=COLOUR_RGB('',0.498039215686275,0.498039215686275,0.498039215686275);
#1243=MANIFOLD_SOLID_BREP('Top',#1234);
#1244=SHAPE_DEFINITION_REPRESENTATION(#2030,#1245);
#1245=SHAPE_REPRESENTATION('Top',(#1246),#2025);
#1246=AXIS2_PLACEMENT_3D('',#1679,#1345,#1346);
#1247=AXIS2_PLACEMENT_3D('',#1680,#1347,#1348);
#1248=AXIS2_PLACEMENT_3D('',#1729,#1373,#1374);
#1249=AXIS2_PLACEMENT_3D('',#1778,#1399,#1400);
#1250=AXIS2_PLACEMENT_3D('',#1787,#1405,#1406);
#1251=AXIS2_PLACEMENT_3D('',#1789,#1407,#1408);
#1252=AXIS2_PLACEMENT_3D('',#1794,#1410,#1411);
#1253=AXIS2_PLACEMENT_3D('',#1798,#1413,#1414);
#1254=AXIS2_PLACEMENT_3D('',#1802,#1416,#1417);
#1255=AXIS2_PLACEMENT_3D('',#1805,#1419,#1420);
#1256=AXIS2_PLACEMENT_3D('',#1806,#1421,#1422);
#1257=AXIS2_PLACEMENT_3D('',#1813,#1426,#1427);
#1258=AXIS2_PLACEMENT_3D('',#1818,#1429,#1430);
#1259=AXIS2_PLACEMENT_3D('',#1822,#1432,#1433);
#1260=AXIS2_PLACEMENT_3D('',#1826,#1435,#1436);
#1261=AXIS2_PLACEMENT_3D('',#1829,#1438,#1439);
#1262=AXIS2_PLACEMENT_3D('',#1841,#1446,#1447);
#1263=AXIS2_PLACEMENT_3D('',#1847,#1451,#1452);
#1264=AXIS2_PLACEMENT_3D('',#1851,#1455,#1456);
#1265=AXIS2_PLACEMENT_3D('',#1855,#1459,#1460);
#1266=AXIS2_PLACEMENT_3D('',#1856,#1461,#1462);
#1267=AXIS2_PLACEMENT_3D('',#1861,#1464,#1465);
#1268=AXIS2_PLACEMENT_3D('',#1865,#1467,#1468);
#1269=AXIS2_PLACEMENT_3D('',#1869,#1470,#1471);
#1270=AXIS2_PLACEMENT_3D('',#1880,#1477,#1478);
#1271=AXIS2_PLACEMENT_3D('',#1889,#1483,#1484);
#1272=AXIS2_PLACEMENT_3D('',#1891,#1486,#1487);
#1273=AXIS2_PLACEMENT_3D('',#1900,#1492,#1493);
#1274=AXIS2_PLACEMENT_3D('',#1904,#1495,#1496);
#1275=AXIS2_PLACEMENT_3D('',#1908,#1498,#1499);
#1276=AXIS2_PLACEMENT_3D('',#1912,#1501,#1502);
#1277=AXIS2_PLACEMENT_3D('',#1916,#1504,#1505);
#1278=AXIS2_PLACEMENT_3D('',#1920,#1508,#1509);
#1279=AXIS2_PLACEMENT_3D('',#1922,#1511,#1512);
#1280=AXIS2_PLACEMENT_3D('',#1923,#1513,#1514);
#1281=AXIS2_PLACEMENT_3D('',#1924,#1515,#1516);
#1282=AXIS2_PLACEMENT_3D('',#1925,#1517,#1518);
#1283=AXIS2_PLACEMENT_3D('',#1926,#1519,#1520);
#1284=AXIS2_PLACEMENT_3D('',#1927,#1521,#1522);
#1285=AXIS2_PLACEMENT_3D('',#1928,#1523,#1524);
#1286=AXIS2_PLACEMENT_3D('',#1929,#1525,#1526);
#1287=AXIS2_PLACEMENT_3D('',#1930,#1527,#1528);
#1288=AXIS2_PLACEMENT_3D('',#1931,#1529,#1530);
#1289=AXIS2_PLACEMENT_3D('',#1932,#1531,#1532);
#1290=AXIS2_PLACEMENT_3D('',#1933,#1533,#1534);
#1291=AXIS2_PLACEMENT_3D('',#1934,#1535,#1536);
#1292=AXIS2_PLACEMENT_3D('',#1935,#1537,#1538);
#1293=AXIS2_PLACEMENT_3D('',#1936,#1539,#1540);
#1294=AXIS2_PLACEMENT_3D('',#1937,#1541,#1542);
#1295=AXIS2_PLACEMENT_3D('',#1938,#1543,#1544);
#1296=AXIS2_PLACEMENT_3D('',#1939,#1545,#1546);
#1297=AXIS2_PLACEMENT_3D('',#1940,#1547,#1548);
#1298=AXIS2_PLACEMENT_3D('',#1941,#1549,#1550);
#1299=AXIS2_PLACEMENT_3D('',#1942,#1551,#1552);
#1300=AXIS2_PLACEMENT_3D('',#1943,#1553,#1554);
#1301=AXIS2_PLACEMENT_3D('',#1944,#1555,#1556);
#1302=AXIS2_PLACEMENT_3D('',#1945,#1557,#1558);
#1303=AXIS2_PLACEMENT_3D('',#1946,#1559,#1560);
#1304=AXIS2_PLACEMENT_3D('',#1947,#1561,#1562);
#1305=AXIS2_PLACEMENT_3D('',#1948,#1563,#1564);
#1306=AXIS2_PLACEMENT_3D('',#1949,#1565,#1566);
#1307=AXIS2_PLACEMENT_3D('',#1950,#1567,#1568);
#1308=AXIS2_PLACEMENT_3D('',#1951,#1569,#1570);
#1309=AXIS2_PLACEMENT_3D('',#1954,#1573,#1574);
#1310=AXIS2_PLACEMENT_3D('',#1956,#1576,#1577);
#1311=AXIS2_PLACEMENT_3D('',#1958,#1579,#1580);
#1312=AXIS2_PLACEMENT_3D('',#1960,#1582,#1583);
#1313=AXIS2_PLACEMENT_3D('',#1962,#1585,#1586);
#1314=AXIS2_PLACEMENT_3D('',#1964,#1588,#1589);
#1315=AXIS2_PLACEMENT_3D('',#1966,#1591,#1592);
#1316=AXIS2_PLACEMENT_3D('',#1967,#1593,#1594);
#1317=AXIS2_PLACEMENT_3D('',#1968,#1595,#1596);
#1318=AXIS2_PLACEMENT_3D('',#1971,#1599,#1600);
#1319=AXIS2_PLACEMENT_3D('',#1973,#1602,#1603);
#1320=AXIS2_PLACEMENT_3D('',#1975,#1605,#1606);
#1321=AXIS2_PLACEMENT_3D('',#1977,#1608,#1609);
#1322=AXIS2_PLACEMENT_3D('',#1979,#1611,#1612);
#1323=AXIS2_PLACEMENT_3D('',#1981,#1614,#1615);
#1324=AXIS2_PLACEMENT_3D('',#1983,#1617,#1618);
#1325=AXIS2_PLACEMENT_3D('',#1984,#1619,#1620);
#1326=AXIS2_PLACEMENT_3D('',#1987,#1623,#1624);
#1327=AXIS2_PLACEMENT_3D('',#1989,#1626,#1627);
#1328=AXIS2_PLACEMENT_3D('',#1991,#1629,#1630);
#1329=AXIS2_PLACEMENT_3D('',#1992,#1631,#1632);
#1330=AXIS2_PLACEMENT_3D('',#1995,#1635,#1636);
#1331=AXIS2_PLACEMENT_3D('',#1997,#1638,#1639);
#1332=AXIS2_PLACEMENT_3D('',#1999,#1641,#1642);
#1333=AXIS2_PLACEMENT_3D('',#2000,#1643,#1644);
#1334=AXIS2_PLACEMENT_3D('',#2003,#1647,#1648);
#1335=AXIS2_PLACEMENT_3D('',#2005,#1650,#1651);
#1336=AXIS2_PLACEMENT_3D('',#2007,#1653,#1654);
#1337=AXIS2_PLACEMENT_3D('',#2008,#1655,#1656);
#1338=AXIS2_PLACEMENT_3D('',#2011,#1659,#1660);
#1339=AXIS2_PLACEMENT_3D('',#2013,#1662,#1663);
#1340=AXIS2_PLACEMENT_3D('',#2015,#1665,#1666);
#1341=AXIS2_PLACEMENT_3D('',#2016,#1667,#1668);
#1342=AXIS2_PLACEMENT_3D('',#2019,#1671,#1672);
#1343=AXIS2_PLACEMENT_3D('',#2021,#1674,#1675);
#1344=AXIS2_PLACEMENT_3D('',#2023,#1677,#1678);
#1345=DIRECTION('',(0.,0.,1.));
#1346=DIRECTION('',(1.,0.,0.));
#1347=DIRECTION('',(-1.,0.,0.));
#1348=DIRECTION('',(0.,0.,1.));
#1349=DIRECTION('',(0.,0.,1.));
#1350=DIRECTION('',(0.,-1.,-1.22940782058624E-16));
#1351=DIRECTION('',(0.,0.,1.));
#1352=DIRECTION('',(0.,-1.,-1.23908819712629E-16));
#1353=DIRECTION('',(0.,0.,1.));
#1354=DIRECTION('',(0.,-1.,-1.22940782058624E-16));
#1355=DIRECTION('',(0.,0.,1.));
#1356=DIRECTION('',(0.,-1.,-1.23908819712629E-16));
#1357=DIRECTION('',(0.,-1.,0.));
#1358=DIRECTION('',(0.,0.,1.));
#1359=DIRECTION('',(0.,-1.,0.));
#1360=DIRECTION('',(0.,0.,1.));
#1361=DIRECTION('',(0.,-1.,-1.44560289664734E-16));
#1362=DIRECTION('',(0.,0.,1.));
#1363=DIRECTION('',(0.,-1.,-1.26490253456642E-16));
#1364=DIRECTION('',(0.,0.,1.));
#1365=DIRECTION('',(0.,0.,1.));
#1366=DIRECTION('',(0.,-1.,-1.22940782058624E-16));
#1367=DIRECTION('',(0.,0.,1.));
#1368=DIRECTION('',(0.,-1.,-1.23908819712629E-16));
#1369=DIRECTION('',(0.,-1.,-1.23908819712629E-16));
#1370=DIRECTION('',(0.,0.,1.));
#1371=DIRECTION('',(0.,-1.,-1.22940782058624E-16));
#1372=DIRECTION('',(0.,0.,1.));
#1373=DIRECTION('',(-1.,0.,0.));
#1374=DIRECTION('',(0.,0.,1.));
#1375=DIRECTION('',(0.,-1.,0.));
#1376=DIRECTION('',(0.,0.,1.));
#1377=DIRECTION('',(0.,-1.,0.));
#1378=DIRECTION('',(0.,0.,1.));
#1379=DIRECTION('',(0.,0.,1.));
#1380=DIRECTION('',(0.,-1.,-1.44560289664734E-16));
#1381=DIRECTION('',(0.,0.,1.));
#1382=DIRECTION('',(0.,-1.,-1.26490253456642E-16));
#1383=DIRECTION('',(0.,-1.,-1.22940782058624E-16));
#1384=DIRECTION('',(0.,0.,1.));
#1385=DIRECTION('',(0.,-1.,-1.23908819712629E-16));
#1386=DIRECTION('',(0.,0.,1.));
#1387=DIRECTION('',(0.,-1.,-1.22940782058624E-16));
#1388=DIRECTION('',(0.,0.,1.));
#1389=DIRECTION('',(0.,-1.,-1.23908819712629E-16));
#1390=DIRECTION('',(0.,0.,1.));
#1391=DIRECTION('',(0.,-1.,-1.22940782058624E-16));
#1392=DIRECTION('',(0.,0.,1.));
#1393=DIRECTION('',(0.,-1.,-1.23908819712629E-16));
#1394=DIRECTION('',(0.,0.,1.));
#1395=DIRECTION('',(0.,0.,1.));
#1396=DIRECTION('',(0.,-1.,-1.23908819712629E-16));
#1397=DIRECTION('',(0.,0.,1.));
#1398=DIRECTION('',(0.,-1.,-1.22940782058624E-16));
#1399=DIRECTION('',(1.76787105832031E-16,-1.,0.));
#1400=DIRECTION('',(1.,1.76787105832031E-16,0.));
#1401=DIRECTION('',(1.,1.76787105832031E-16,0.));
#1402=DIRECTION('',(0.,0.,1.));
#1403=DIRECTION('',(1.,1.76787105832031E-16,0.));
#1404=DIRECTION('',(0.,0.,1.));
#1405=DIRECTION('',(-1.76787105832031E-16,1.,0.));
#1406=DIRECTION('',(-1.,-1.76787105832031E-16,0.));
#1407=DIRECTION('',(-1.76787105832031E-16,1.,0.));
#1408=DIRECTION('',(-1.,-1.76787105832031E-16,0.));
#1409=DIRECTION('',(-1.,-1.76787105832031E-16,1.17528690784337E-16));
#1410=DIRECTION('',(-1.76787105832031E-16,1.,0.));
#1411=DIRECTION('',(-1.,-1.76787105832031E-16,0.));
#1412=DIRECTION('',(0.,0.,-1.));
#1413=DIRECTION('',(-1.76787105832031E-16,1.,0.));
#1414=DIRECTION('',(-1.,-1.76787105832031E-16,0.));
#1415=DIRECTION('',(-1.,-1.76787105832031E-16,1.17528690784337E-16));
#1416=DIRECTION('',(-1.76787105832031E-16,1.,0.));
#1417=DIRECTION('',(-1.,-1.76787105832031E-16,0.));
#1418=DIRECTION('',(0.,0.,-1.));
#1419=DIRECTION('',(0.,-1.,0.));
#1420=DIRECTION('',(0.,0.,-1.));
#1421=DIRECTION('',(0.,-1.,0.));
#1422=DIRECTION('',(0.,0.,-1.));
#1423=DIRECTION('',(1.,0.,0.));
#1424=DIRECTION('',(0.,0.,1.));
#1425=DIRECTION('',(1.,0.,0.));
#1426=DIRECTION('',(0.,-1.,0.));
#1427=DIRECTION('',(0.,0.,-1.));
#1428=DIRECTION('',(1.,0.,-1.17528690784337E-16));
#1429=DIRECTION('',(0.,-1.,0.));
#1430=DIRECTION('',(0.,0.,-1.));
#1431=DIRECTION('',(0.,0.,1.));
#1432=DIRECTION('',(0.,-1.,0.));
#1433=DIRECTION('',(0.,0.,-1.));
#1434=DIRECTION('',(1.,0.,-1.17528690784337E-16));
#1435=DIRECTION('',(0.,-1.,0.));
#1436=DIRECTION('',(0.,0.,-1.));
#1437=DIRECTION('',(0.,0.,1.));
#1438=DIRECTION('',(0.,0.,1.));
#1439=DIRECTION('',(1.,0.,0.));
#1440=DIRECTION('',(0.,-1.,0.));
#1441=DIRECTION('',(1.,0.,0.));
#1442=DIRECTION('',(0.,-1.,0.));
#1443=DIRECTION('',(1.,0.,0.));
#1444=DIRECTION('',(0.,-1.,0.));
#1445=DIRECTION('',(1.,0.,0.));
#1446=DIRECTION('',(-1.,0.,0.));
#1447=DIRECTION('',(0.,0.,1.));
#1448=DIRECTION('',(0.,-1.,0.));
#1449=DIRECTION('',(0.,0.,1.));
#1450=DIRECTION('',(0.,0.,1.));
#1451=DIRECTION('',(0.,-1.,0.));
#1452=DIRECTION('',(0.,0.,-1.));
#1453=DIRECTION('',(1.,0.,0.));
#1454=DIRECTION('',(0.,0.,1.));
#1455=DIRECTION('',(-1.,0.,0.));
#1456=DIRECTION('',(0.,0.,1.));
#1457=DIRECTION('',(0.,-1.,0.));
#1458=DIRECTION('',(0.,0.,1.));
#1459=DIRECTION('',(-1.,0.,0.));
#1460=DIRECTION('',(0.,0.,1.));
#1461=DIRECTION('',(-1.,0.,0.));
#1462=DIRECTION('',(0.,0.,1.));
#1463=DIRECTION('',(0.,-1.,0.));
#1464=DIRECTION('',(-1.,0.,0.));
#1465=DIRECTION('',(0.,0.,1.));
#1466=DIRECTION('',(0.,0.,-1.));
#1467=DIRECTION('',(-1.,0.,0.));
#1468=DIRECTION('',(0.,0.,1.));
#1469=DIRECTION('',(0.,-1.,0.));
#1470=DIRECTION('',(-1.,0.,0.));
#1471=DIRECTION('',(0.,0.,1.));
#1472=DIRECTION('',(0.,0.,-1.));
#1473=DIRECTION('',(0.,-1.,0.));
#1474=DIRECTION('',(0.,0.,1.));
#1475=DIRECTION('',(0.,-1.,0.));
#1476=DIRECTION('',(0.,0.,1.));
#1477=DIRECTION('',(0.,-1.,0.));
#1478=DIRECTION('',(0.,0.,-1.));
#1479=DIRECTION('',(1.,0.,0.));
#1480=DIRECTION('',(0.,0.,1.));
#1481=DIRECTION('',(1.,0.,0.));
#1482=DIRECTION('',(0.,0.,1.));
#1483=DIRECTION('',(0.,-1.,0.));
#1484=DIRECTION('',(0.,0.,-1.));
#1485=DIRECTION('',(1.,0.,0.));
#1486=DIRECTION('',(0.,0.,1.));
#1487=DIRECTION('',(1.,0.,0.));
#1488=DIRECTION('',(0.,-1.,0.));
#1489=DIRECTION('',(1.,1.76787105832031E-16,0.));
#1490=DIRECTION('',(0.,-1.,0.));
#1491=DIRECTION('',(1.,0.,0.));
#1492=DIRECTION('',(-1.,0.,0.));
#1493=DIRECTION('',(0.,0.,1.));
#1494=DIRECTION('',(0.,0.,-1.));
#1495=DIRECTION('',(-1.,0.,0.));
#1496=DIRECTION('',(0.,0.,1.));
#1497=DIRECTION('',(0.,-1.,0.));
#1498=DIRECTION('',(-1.,0.,0.));
#1499=DIRECTION('',(0.,0.,1.));
#1500=DIRECTION('',(0.,0.,-1.));
#1501=DIRECTION('',(-1.,0.,0.));
#1502=DIRECTION('',(0.,0.,1.));
#1503=DIRECTION('',(0.,-1.,0.));
#1504=DIRECTION('',(-1.,0.,0.));
#1505=DIRECTION('',(0.,0.,1.));
#1506=DIRECTION('',(0.,0.,1.));
#1507=DIRECTION('',(0.,-1.,0.));
#1508=DIRECTION('',(0.,-1.,0.));
#1509=DIRECTION('',(0.,0.,-1.));
#1510=DIRECTION('',(1.,0.,0.));
#1511=DIRECTION('',(0.,0.,1.));
#1512=DIRECTION('',(1.,0.,0.));
#1513=DIRECTION('',(0.,0.,1.));
#1514=DIRECTION('',(1.,0.,0.));
#1515=DIRECTION('',(0.,0.,1.));
#1516=DIRECTION('',(1.,0.,0.));
#1517=DIRECTION('',(0.,0.,1.));
#1518=DIRECTION('',(1.,0.,0.));
#1519=DIRECTION('',(0.,0.,1.));
#1520=DIRECTION('',(1.,0.,0.));
#1521=DIRECTION('',(0.,0.,1.));
#1522=DIRECTION('',(1.,0.,0.));
#1523=DIRECTION('',(0.,0.,1.));
#1524=DIRECTION('',(1.,0.,0.));
#1525=DIRECTION('',(0.,-1.,0.));
#1526=DIRECTION('',(0.,0.,-1.));
#1527=DIRECTION('',(0.,-1.,0.));
#1528=DIRECTION('',(0.,0.,-1.));
#1529=DIRECTION('',(-1.,0.,0.));
#1530=DIRECTION('',(0.,0.,1.));
#1531=DIRECTION('',(0.,0.,-1.));
#1532=DIRECTION('',(-1.,0.,0.));
#1533=DIRECTION('',(0.,0.,1.));
#1534=DIRECTION('',(1.,0.,0.));
#1535=DIRECTION('',(1.,0.,0.));
#1536=DIRECTION('',(0.,0.,-1.));
#1537=DIRECTION('',(1.,0.,0.));
#1538=DIRECTION('',(0.,0.,-1.));
#1539=DIRECTION('',(0.,-1.,0.));
#1540=DIRECTION('',(0.,0.,-1.));
#1541=DIRECTION('',(0.,1.,0.));
#1542=DIRECTION('',(0.,0.,1.));
#1543=DIRECTION('',(0.,0.,-1.));
#1544=DIRECTION('',(-1.,0.,0.));
#1545=DIRECTION('',(0.,0.,1.));
#1546=DIRECTION('',(1.,0.,0.));
#1547=DIRECTION('',(0.,-1.,0.));
#1548=DIRECTION('',(0.,0.,-1.));
#1549=DIRECTION('',(0.,-1.,0.));
#1550=DIRECTION('',(0.,0.,-1.));
#1551=DIRECTION('',(-1.,0.,0.));
#1552=DIRECTION('',(0.,0.,1.));
#1553=DIRECTION('',(-1.,0.,0.));
#1554=DIRECTION('',(0.,0.,1.));
#1555=DIRECTION('',(0.,1.,0.));
#1556=DIRECTION('',(0.,0.,1.));
#1557=DIRECTION('',(0.,1.,0.));
#1558=DIRECTION('',(0.,0.,1.));
#1559=DIRECTION('',(-1.,-1.76787105832031E-16,0.));
#1560=DIRECTION('',(1.76787105832031E-16,-1.,0.));
#1561=DIRECTION('',(1.,0.,0.));
#1562=DIRECTION('',(0.,0.,-1.));
#1563=DIRECTION('',(0.,0.,1.));
#1564=DIRECTION('',(1.,0.,0.));
#1565=DIRECTION('',(0.,0.,1.));
#1566=DIRECTION('',(1.,0.,0.));
#1567=DIRECTION('',(0.,0.,1.));
#1568=DIRECTION('',(1.,0.,0.));
#1569=DIRECTION('',(-1.17528690784337E-16,-2.07775570959906E-32,-1.));
#1570=DIRECTION('',(-1.,0.,1.17528690784337E-16));
#1571=DIRECTION('',(-1.76787105832031E-16,1.,0.));
#1572=DIRECTION('',(-1.76787105832031E-16,1.,0.));
#1573=DIRECTION('',(-1.76787105832031E-16,1.,0.));
#1574=DIRECTION('',(-1.,-1.76787105832031E-16,0.));
#1575=DIRECTION('',(-1.76787105832031E-16,1.,0.));
#1576=DIRECTION('',(1.,1.76787105832031E-16,0.));
#1577=DIRECTION('',(-1.76787105832031E-16,1.,0.));
#1578=DIRECTION('',(-1.76787105832031E-16,1.,0.));
#1579=DIRECTION('',(-1.76787105832031E-16,1.,0.));
#1580=DIRECTION('',(-1.,-1.76787105832031E-16,0.));
#1581=DIRECTION('',(-1.76787105832031E-16,1.,0.));
#1582=DIRECTION('',(-1.17528690784337E-16,-2.07775570959906E-32,-1.));
#1583=DIRECTION('',(-1.,0.,1.17528690784337E-16));
#1584=DIRECTION('',(-1.76787105832031E-16,1.,0.));
#1585=DIRECTION('',(-1.76787105832031E-16,1.,0.));
#1586=DIRECTION('',(-1.,-1.76787105832031E-16,0.));
#1587=DIRECTION('',(-1.76787105832031E-16,1.,0.));
#1588=DIRECTION('',(1.,1.76787105832031E-16,0.));
#1589=DIRECTION('',(-1.76787105832031E-16,1.,0.));
#1590=DIRECTION('',(-1.76787105832031E-16,1.,0.));
#1591=DIRECTION('',(-1.76787105832031E-16,1.,0.));
#1592=DIRECTION('',(-1.,-1.76787105832031E-16,0.));
#1593=DIRECTION('',(-1.76787105832031E-16,1.,0.));
#1594=DIRECTION('',(-1.,-1.76787105832031E-16,0.));
#1595=DIRECTION('',(0.,0.,-1.));
#1596=DIRECTION('',(-1.,0.,0.));
#1597=DIRECTION('',(-1.,0.,0.));
#1598=DIRECTION('',(-1.,0.,0.));
#1599=DIRECTION('',(-1.,0.,0.));
#1600=DIRECTION('',(0.,0.,1.));
#1601=DIRECTION('',(-1.,0.,0.));
#1602=DIRECTION('',(0.,1.,0.));
#1603=DIRECTION('',(0.,0.,1.));
#1604=DIRECTION('',(-1.,0.,0.));
#1605=DIRECTION('',(-1.,0.,0.));
#1606=DIRECTION('',(0.,0.,1.));
#1607=DIRECTION('',(-1.,0.,0.));
#1608=DIRECTION('',(0.,0.,-1.));
#1609=DIRECTION('',(-1.,0.,0.));
#1610=DIRECTION('',(-1.,0.,0.));
#1611=DIRECTION('',(-1.,0.,0.));
#1612=DIRECTION('',(0.,0.,1.));
#1613=DIRECTION('',(-1.,0.,0.));
#1614=DIRECTION('',(0.,1.,0.));
#1615=DIRECTION('',(0.,0.,1.));
#1616=DIRECTION('',(-1.,0.,0.));
#1617=DIRECTION('',(-1.,0.,0.));
#1618=DIRECTION('',(0.,0.,1.));
#1619=DIRECTION('',(0.,-1.44560289664734E-16,1.));
#1620=DIRECTION('',(0.,-1.,-1.44560289664734E-16));
#1621=DIRECTION('',(1.,0.,0.));
#1622=DIRECTION('',(1.,0.,0.));
#1623=DIRECTION('',(0.,1.,0.));
#1624=DIRECTION('',(0.,0.,1.));
#1625=DIRECTION('',(1.,0.,0.));
#1626=DIRECTION('',(0.,-1.26490253456642E-16,1.));
#1627=DIRECTION('',(0.,-1.,-1.26490253456642E-16));
#1628=DIRECTION('',(1.,0.,0.));
#1629=DIRECTION('',(0.,1.,0.));
#1630=DIRECTION('',(0.,0.,1.));
#1631=DIRECTION('',(0.,1.,0.));
#1632=DIRECTION('',(0.,0.,1.));
#1633=DIRECTION('',(1.,0.,0.));
#1634=DIRECTION('',(1.,0.,0.));
#1635=DIRECTION('',(0.,-1.23908819712629E-16,1.));
#1636=DIRECTION('',(0.,-1.,-1.23908819712629E-16));
#1637=DIRECTION('',(1.,0.,0.));
#1638=DIRECTION('',(0.,1.,0.));
#1639=DIRECTION('',(0.,0.,1.));
#1640=DIRECTION('',(1.,0.,0.));
#1641=DIRECTION('',(0.,-1.22940782058624E-16,1.));
#1642=DIRECTION('',(0.,-1.,-1.22940782058624E-16));
#1643=DIRECTION('',(0.,1.,0.));
#1644=DIRECTION('',(0.,0.,1.));
#1645=DIRECTION('',(1.,0.,0.));
#1646=DIRECTION('',(1.,0.,0.));
#1647=DIRECTION('',(0.,-1.23908819712629E-16,1.));
#1648=DIRECTION('',(0.,-1.,-1.23908819712629E-16));
#1649=DIRECTION('',(1.,0.,0.));
#1650=DIRECTION('',(0.,1.,0.));
#1651=DIRECTION('',(0.,0.,1.));
#1652=DIRECTION('',(1.,0.,0.));
#1653=DIRECTION('',(0.,-1.22940782058624E-16,1.));
#1654=DIRECTION('',(0.,-1.,-1.22940782058624E-16));
#1655=DIRECTION('',(0.,1.,0.));
#1656=DIRECTION('',(0.,0.,1.));
#1657=DIRECTION('',(1.,0.,0.));
#1658=DIRECTION('',(1.,0.,0.));
#1659=DIRECTION('',(0.,-1.23908819712629E-16,1.));
#1660=DIRECTION('',(0.,-1.,-1.23908819712629E-16));
#1661=DIRECTION('',(1.,0.,0.));
#1662=DIRECTION('',(0.,1.,0.));
#1663=DIRECTION('',(0.,0.,1.));
#1664=DIRECTION('',(1.,0.,0.));
#1665=DIRECTION('',(0.,-1.22940782058624E-16,1.));
#1666=DIRECTION('',(0.,-1.,-1.22940782058624E-16));
#1667=DIRECTION('',(0.,-1.23908819712629E-16,1.));
#1668=DIRECTION('',(0.,-1.,-1.23908819712629E-16));
#1669=DIRECTION('',(1.,0.,0.));
#1670=DIRECTION('',(1.,0.,0.));
#1671=DIRECTION('',(0.,1.,0.));
#1672=DIRECTION('',(0.,0.,1.));
#1673=DIRECTION('',(1.,0.,0.));
#1674=DIRECTION('',(0.,-1.22940782058624E-16,1.));
#1675=DIRECTION('',(0.,-1.,-1.22940782058624E-16));
#1676=DIRECTION('',(1.,0.,0.));
#1677=DIRECTION('',(0.,1.,0.));
#1678=DIRECTION('',(0.,0.,1.));
#1679=CARTESIAN_POINT('',(0.,0.,0.));
#1680=CARTESIAN_POINT('',(0.214,-0.0991862327456474,0.007545));
#1681=CARTESIAN_POINT('',(0.214,-0.125950792884827,-0.006955));
#1682=CARTESIAN_POINT('',(0.214,-0.125950792884827,-0.013955));
#1683=CARTESIAN_POINT('',(0.214,-0.125950792884827,4.50000000000034E-5));
#1684=CARTESIAN_POINT('',(0.214,-0.118950792884827,4.50000000000042E-5));
#1685=CARTESIAN_POINT('',(0.214,-0.111950792884827,4.50000000000053E-5));
#1686=CARTESIAN_POINT('',(0.214,-0.111950792884827,-0.006955));
#1687=CARTESIAN_POINT('',(0.214,-0.111950792884827,-0.013955));
#1688=CARTESIAN_POINT('',(0.214,-0.118950792884827,-0.013955));
#1689=CARTESIAN_POINT('',(0.214,-0.0869507928848267,-0.006955));
#1690=CARTESIAN_POINT('',(0.214,-0.0869507928848267,-0.013955));
#1691=CARTESIAN_POINT('',(0.214,-0.0869507928848267,4.50000000000034E-5));
#1692=CARTESIAN_POINT('',(0.214,-0.0799507928848267,4.50000000000042E-5));
#1693=CARTESIAN_POINT('',(0.214,-0.0729507928848266,4.50000000000049E-5));
#1694=CARTESIAN_POINT('',(0.214,-0.0729507928848266,-0.006955));
#1695=CARTESIAN_POINT('',(0.214,-0.0729507928848266,-0.013955));
#1696=CARTESIAN_POINT('',(0.214,-0.0799507928848267,-0.013955));
#1697=CARTESIAN_POINT('',(0.214,-0.0991862327456474,-0.014455));
#1698=CARTESIAN_POINT('',(0.214,-0.0488724654912949,-0.014455));
#1699=CARTESIAN_POINT('',(0.214,-0.1495,-0.014455));
#1700=CARTESIAN_POINT('',(0.214,-0.0488724654912949,0.007545));
#1701=CARTESIAN_POINT('',(0.214,-0.0488724654912949,0.000545));
#1702=CARTESIAN_POINT('',(0.214,-0.1595,0.000545));
#1703=CARTESIAN_POINT('',(0.214,-0.1495,0.000545));
#1704=CARTESIAN_POINT('',(0.214,-0.1495,-0.014455));
#1705=CARTESIAN_POINT('',(0.214,-0.0604507928848267,-0.012955));
#1706=CARTESIAN_POINT('',(0.214,-0.0544507928848267,-0.012955));
#1707=CARTESIAN_POINT('',(0.214,-0.0664507928848266,-0.012955));
#1708=CARTESIAN_POINT('',(0.214,-0.0664507928848266,-0.006955));
#1709=CARTESIAN_POINT('',(0.214,-0.0664507928848266,-0.000954999999999981));
#1710=CARTESIAN_POINT('',(0.214,-0.0604507928848267,-0.000954999999999979));
#1711=CARTESIAN_POINT('',(0.214,-0.0544507928848267,-0.000954999999999978));
#1712=CARTESIAN_POINT('',(0.214,-0.0544507928848267,-0.006955));
#1713=CARTESIAN_POINT('',(0.214,-0.106450792884827,-0.006955));
#1714=CARTESIAN_POINT('',(0.214,-0.106450792884827,-0.013955));
#1715=CARTESIAN_POINT('',(0.214,-0.106450792884827,4.50000000000034E-5));
#1716=CARTESIAN_POINT('',(0.214,-0.0994507928848266,4.50000000000042E-5));
#1717=CARTESIAN_POINT('',(0.214,-0.0924507928848266,4.50000000000051E-5));
#1718=CARTESIAN_POINT('',(0.214,-0.0924507928848266,-0.006955));
#1719=CARTESIAN_POINT('',(0.214,-0.0924507928848266,-0.013955));
#1720=CARTESIAN_POINT('',(0.214,-0.0994507928848266,-0.013955));
#1721=CARTESIAN_POINT('',(0.214,-0.138450792884827,-0.013955));
#1722=CARTESIAN_POINT('',(0.214,-0.131450792884827,-0.013955));
#1723=CARTESIAN_POINT('',(0.214,-0.145450792884827,-0.013955));
#1724=CARTESIAN_POINT('',(0.214,-0.145450792884827,-0.006955));
#1725=CARTESIAN_POINT('',(0.214,-0.145450792884827,4.50000000000025E-5));
#1726=CARTESIAN_POINT('',(0.214,-0.138450792884827,4.50000000000042E-5));
#1727=CARTESIAN_POINT('',(0.214,-0.131450792884827,4.50000000000051E-5));
#1728=CARTESIAN_POINT('',(0.214,-0.131450792884827,-0.006955));
#1729=CARTESIAN_POINT('',(0.204,-0.0985,-0.014455));
#1730=CARTESIAN_POINT('',(0.204,-0.0991862327456474,0.007545));
#1731=CARTESIAN_POINT('',(0.204,-0.0475,0.007545));
#1732=CARTESIAN_POINT('',(0.204,-0.1495,0.007545));
#1733=CARTESIAN_POINT('',(0.204,-0.0475,-0.014455));
#1734=CARTESIAN_POINT('',(0.204,-0.0475,-0.014455));
#1735=CARTESIAN_POINT('',(0.204,-0.0985,-0.014455));
#1736=CARTESIAN_POINT('',(0.204,-0.1495,-0.014455));
#1737=CARTESIAN_POINT('',(0.204,-0.1495,-0.014455));
#1738=CARTESIAN_POINT('',(0.204,-0.0664507928848266,-0.006955));
#1739=CARTESIAN_POINT('',(0.204,-0.0664507928848266,-0.012955));
#1740=CARTESIAN_POINT('',(0.204,-0.0664507928848266,-0.000954999999999981));
#1741=CARTESIAN_POINT('',(0.204,-0.0604507928848267,-0.012955));
#1742=CARTESIAN_POINT('',(0.204,-0.0544507928848267,-0.012955));
#1743=CARTESIAN_POINT('',(0.204,-0.0544507928848267,-0.006955));
#1744=CARTESIAN_POINT('',(0.204,-0.0544507928848267,-0.000954999999999978));
#1745=CARTESIAN_POINT('',(0.204,-0.0604507928848267,-0.000954999999999979));
#1746=CARTESIAN_POINT('',(0.204,-0.0799507928848267,4.50000000000042E-5));
#1747=CARTESIAN_POINT('',(0.204,-0.0729507928848266,4.50000000000042E-5));
#1748=CARTESIAN_POINT('',(0.204,-0.0869507928848267,4.50000000000048E-5));
#1749=CARTESIAN_POINT('',(0.204,-0.0869507928848267,-0.006955));
#1750=CARTESIAN_POINT('',(0.204,-0.0869507928848267,-0.013955));
#1751=CARTESIAN_POINT('',(0.204,-0.0799507928848267,-0.013955));
#1752=CARTESIAN_POINT('',(0.204,-0.0729507928848266,-0.013955));
#1753=CARTESIAN_POINT('',(0.204,-0.0729507928848266,-0.006955));
#1754=CARTESIAN_POINT('',(0.204,-0.0994507928848266,4.50000000000042E-5));
#1755=CARTESIAN_POINT('',(0.204,-0.0924507928848266,4.50000000000042E-5));
#1756=CARTESIAN_POINT('',(0.204,-0.106450792884827,4.50000000000041E-5));
#1757=CARTESIAN_POINT('',(0.204,-0.106450792884827,-0.006955));
#1758=CARTESIAN_POINT('',(0.204,-0.106450792884827,-0.013955));
#1759=CARTESIAN_POINT('',(0.204,-0.0994507928848266,-0.013955));
#1760=CARTESIAN_POINT('',(0.204,-0.0924507928848266,-0.013955));
#1761=CARTESIAN_POINT('',(0.204,-0.0924507928848266,-0.006955));
#1762=CARTESIAN_POINT('',(0.204,-0.118950792884827,4.50000000000042E-5));
#1763=CARTESIAN_POINT('',(0.204,-0.111950792884827,4.50000000000042E-5));
#1764=CARTESIAN_POINT('',(0.204,-0.125950792884827,4.50000000000035E-5));
#1765=CARTESIAN_POINT('',(0.204,-0.125950792884827,-0.006955));
#1766=CARTESIAN_POINT('',(0.204,-0.125950792884827,-0.013955));
#1767=CARTESIAN_POINT('',(0.204,-0.118950792884827,-0.013955));
#1768=CARTESIAN_POINT('',(0.204,-0.111950792884827,-0.013955));
#1769=CARTESIAN_POINT('',(0.204,-0.111950792884827,-0.006955));
#1770=CARTESIAN_POINT('',(0.204,-0.145450792884827,-0.006955));
#1771=CARTESIAN_POINT('',(0.204,-0.145450792884827,-0.013955));
#1772=CARTESIAN_POINT('',(0.204,-0.145450792884827,4.50000000000025E-5));
#1773=CARTESIAN_POINT('',(0.204,-0.138450792884827,-0.013955));
#1774=CARTESIAN_POINT('',(0.204,-0.131450792884827,-0.013955));
#1775=CARTESIAN_POINT('',(0.204,-0.131450792884827,-0.006955));
#1776=CARTESIAN_POINT('',(0.204,-0.131450792884827,4.50000000000051E-5));
#1777=CARTESIAN_POINT('',(0.204,-0.138450792884827,4.50000000000042E-5));
#1778=CARTESIAN_POINT('',(0.17475,-0.0388724654912948,0.007545));
#1779=CARTESIAN_POINT('',(0.214,-0.0388724654912948,0.000545));
#1780=CARTESIAN_POINT('',(0.1455,-0.0388724654912948,0.000545));
#1781=CARTESIAN_POINT('',(0.204,-0.0388724654912948,0.000545));
#1782=CARTESIAN_POINT('',(0.204,-0.0388724654912948,0.007545));
#1783=CARTESIAN_POINT('',(0.204,-0.0388724654912948,-0.014455));
#1784=CARTESIAN_POINT('',(0.17475,-0.0388724654912948,-0.014455));
#1785=CARTESIAN_POINT('',(0.1455,-0.0388724654912948,-0.014455));
#1786=CARTESIAN_POINT('',(0.1455,-0.0388724654912948,0.010545));
#1787=CARTESIAN_POINT('',(0.195541,-0.0388724654912948,-0.003885));
#1788=CARTESIAN_POINT('',(0.192541,-0.0388724654912948,-0.003885));
#1789=CARTESIAN_POINT('',(0.16377,-0.0388724654912948,-0.002085));
#1790=CARTESIAN_POINT('',(0.16377,-0.0388724654912948,-0.000585));
#1791=CARTESIAN_POINT('',(0.16527,-0.0388724654912948,-0.002085));
#1792=CARTESIAN_POINT('',(0.16008,-0.0388724654912948,-0.000585));
#1793=CARTESIAN_POINT('',(0.15639,-0.0388724654912948,-0.000585));
#1794=CARTESIAN_POINT('',(0.15639,-0.0388724654912948,-0.002085));
#1795=CARTESIAN_POINT('',(0.15489,-0.0388724654912948,-0.002085));
#1796=CARTESIAN_POINT('',(0.15489,-0.0388724654912948,-0.002905));
#1797=CARTESIAN_POINT('',(0.15489,-0.0388724654912948,-0.003725));
#1798=CARTESIAN_POINT('',(0.15639,-0.0388724654912948,-0.003725));
#1799=CARTESIAN_POINT('',(0.15639,-0.0388724654912948,-0.005225));
#1800=CARTESIAN_POINT('',(0.16008,-0.0388724654912948,-0.005225));
#1801=CARTESIAN_POINT('',(0.16377,-0.0388724654912948,-0.005225));
#1802=CARTESIAN_POINT('',(0.16377,-0.0388724654912948,-0.003725));
#1803=CARTESIAN_POINT('',(0.16527,-0.0388724654912948,-0.003725));
#1804=CARTESIAN_POINT('',(0.16527,-0.0388724654912948,-0.002905));
#1805=CARTESIAN_POINT('',(0.17475,-0.0475,-0.014455));
#1806=CARTESIAN_POINT('',(0.195541,-0.0475,-0.003885));
#1807=CARTESIAN_POINT('',(0.195541,-0.0475,-0.006885));
#1808=CARTESIAN_POINT('',(0.17475,-0.0475,0.007545));
#1809=CARTESIAN_POINT('',(0.1455,-0.0475,0.007545));
#1810=CARTESIAN_POINT('',(0.1455,-0.0475,-0.014455));
#1811=CARTESIAN_POINT('',(0.1455,-0.0475,-0.014455));
#1812=CARTESIAN_POINT('',(0.17475,-0.0475,-0.014455));
#1813=CARTESIAN_POINT('',(0.15639,-0.0475,-0.002085));
#1814=CARTESIAN_POINT('',(0.15639,-0.0475,-0.000585));
#1815=CARTESIAN_POINT('',(0.15489,-0.0475,-0.002085));
#1816=CARTESIAN_POINT('',(0.17475,-0.0475,-0.000585));
#1817=CARTESIAN_POINT('',(0.16377,-0.0475,-0.000585));
#1818=CARTESIAN_POINT('',(0.16377,-0.0475,-0.002085));
#1819=CARTESIAN_POINT('',(0.16527,-0.0475,-0.002085));
#1820=CARTESIAN_POINT('',(0.16527,-0.0475,-0.014455));
#1821=CARTESIAN_POINT('',(0.16527,-0.0475,-0.003725));
#1822=CARTESIAN_POINT('',(0.16377,-0.0475,-0.003725));
#1823=CARTESIAN_POINT('',(0.16377,-0.0475,-0.005225));
#1824=CARTESIAN_POINT('',(0.17475,-0.0475,-0.005225));
#1825=CARTESIAN_POINT('',(0.15639,-0.0475,-0.005225));
#1826=CARTESIAN_POINT('',(0.15639,-0.0475,-0.003725));
#1827=CARTESIAN_POINT('',(0.15489,-0.0475,-0.003725));
#1828=CARTESIAN_POINT('',(0.15489,-0.0475,-0.014455));
#1829=CARTESIAN_POINT('',(0.17475,-0.0991862327456474,0.007545));
#1830=CARTESIAN_POINT('',(0.14921,-0.09843,0.007545));
#1831=CARTESIAN_POINT('',(0.14921,-0.06328,0.007545));
#1832=CARTESIAN_POINT('',(0.14921,-0.13358,0.007545));
#1833=CARTESIAN_POINT('',(0.17471,-0.13358,0.007545));
#1834=CARTESIAN_POINT('',(0.20021,-0.13358,0.007545));
#1835=CARTESIAN_POINT('',(0.20021,-0.09843,0.007545));
#1836=CARTESIAN_POINT('',(0.20021,-0.06328,0.007545));
#1837=CARTESIAN_POINT('',(0.17471,-0.06328,0.007545));
#1838=CARTESIAN_POINT('',(0.1455,-0.0991862327456474,0.007545));
#1839=CARTESIAN_POINT('',(0.1455,-0.1495,0.007545));
#1840=CARTESIAN_POINT('',(0.17475,-0.1495,0.007545));
#1841=CARTESIAN_POINT('',(0.14921,-0.09843,0.007545));
#1842=CARTESIAN_POINT('',(0.14921,-0.09843,0.010545));
#1843=CARTESIAN_POINT('',(0.14921,-0.06328,0.010545));
#1844=CARTESIAN_POINT('',(0.14921,-0.13358,0.010545));
#1845=CARTESIAN_POINT('',(0.14921,-0.13358,0.007545));
#1846=CARTESIAN_POINT('',(0.14921,-0.06328,0.007545));
#1847=CARTESIAN_POINT('',(0.17471,-0.06328,0.007545));
#1848=CARTESIAN_POINT('',(0.17471,-0.06328,0.010545));
#1849=CARTESIAN_POINT('',(0.20021,-0.06328,0.010545));
#1850=CARTESIAN_POINT('',(0.20021,-0.06328,0.007545));
#1851=CARTESIAN_POINT('',(0.20021,-0.09843,0.007545));
#1852=CARTESIAN_POINT('',(0.20021,-0.09843,0.010545));
#1853=CARTESIAN_POINT('',(0.20021,-0.13358,0.010545));
#1854=CARTESIAN_POINT('',(0.20021,-0.13358,0.007545));
#1855=CARTESIAN_POINT('',(0.1355,-0.0991862327456474,0.007545));
#1856=CARTESIAN_POINT('',(0.1355,-0.12105,-0.00353500000000011));
#1857=CARTESIAN_POINT('',(0.1355,-0.12105,-0.00203500000000011));
#1858=CARTESIAN_POINT('',(0.1355,-0.11955,-0.00353500000000011));
#1859=CARTESIAN_POINT('',(0.1355,-0.125,-0.00203500000000011));
#1860=CARTESIAN_POINT('',(0.1355,-0.12895,-0.00203500000000014));
#1861=CARTESIAN_POINT('',(0.1355,-0.12895,-0.00353500000000011));
#1862=CARTESIAN_POINT('',(0.1355,-0.13045,-0.00353500000000011));
#1863=CARTESIAN_POINT('',(0.1355,-0.13045,-0.00461000000000006));
#1864=CARTESIAN_POINT('',(0.1355,-0.13045,-0.005685));
#1865=CARTESIAN_POINT('',(0.1355,-0.12895,-0.005685));
#1866=CARTESIAN_POINT('',(0.1355,-0.12895,-0.007185));
#1867=CARTESIAN_POINT('',(0.1355,-0.125,-0.007185));
#1868=CARTESIAN_POINT('',(0.1355,-0.12105,-0.007185));
#1869=CARTESIAN_POINT('',(0.1355,-0.12105,-0.005685));
#1870=CARTESIAN_POINT('',(0.1355,-0.11955,-0.005685));
#1871=CARTESIAN_POINT('',(0.1355,-0.11955,-0.00461000000000006));
#1872=CARTESIAN_POINT('',(0.1355,-0.0991862327456474,0.000545));
#1873=CARTESIAN_POINT('',(0.1355,-0.1495,0.000545));
#1874=CARTESIAN_POINT('',(0.1355,-0.0488724654912949,0.000545));
#1875=CARTESIAN_POINT('',(0.1355,-0.0488724654912949,-0.014455));
#1876=CARTESIAN_POINT('',(0.1355,-0.0488724654912949,-0.014455));
#1877=CARTESIAN_POINT('',(0.1355,-0.0991862327456474,-0.014455));
#1878=CARTESIAN_POINT('',(0.1355,-0.1495,-0.014455));
#1879=CARTESIAN_POINT('',(0.1355,-0.1495,0.007545));
#1880=CARTESIAN_POINT('',(0.17475,-0.1595,0.007545));
#1881=CARTESIAN_POINT('',(0.17475,-0.1595,-0.014455));
#1882=CARTESIAN_POINT('',(0.1455,-0.1595,-0.014455));
#1883=CARTESIAN_POINT('',(0.204,-0.1595,-0.014455));
#1884=CARTESIAN_POINT('',(0.204,-0.1595,0.010545));
#1885=CARTESIAN_POINT('',(0.204,-0.1595,0.000545));
#1886=CARTESIAN_POINT('',(0.17475,-0.1595,0.000545));
#1887=CARTESIAN_POINT('',(0.1455,-0.1595,0.000545));
#1888=CARTESIAN_POINT('',(0.1455,-0.1595,0.007545));
#1889=CARTESIAN_POINT('',(0.17471,-0.13358,0.007545));
#1890=CARTESIAN_POINT('',(0.17471,-0.13358,0.010545));
#1891=CARTESIAN_POINT('',(0.17475,-0.0991862327456474,0.010545));
#1892=CARTESIAN_POINT('',(0.204,-0.0388724654912948,0.010545));
#1893=CARTESIAN_POINT('',(0.204,-0.1495,0.010545));
#1894=CARTESIAN_POINT('',(0.204,-0.0488724654912949,0.010545));
#1895=CARTESIAN_POINT('',(0.1355,-0.0488724654912949,0.010545));
#1896=CARTESIAN_POINT('',(0.1455,-0.0488724654912949,0.010545));
#1897=CARTESIAN_POINT('',(0.1455,-0.0991862327456474,0.010545));
#1898=CARTESIAN_POINT('',(0.1455,-0.1495,0.010545));
#1899=CARTESIAN_POINT('',(0.17475,-0.1495,0.010545));
#1900=CARTESIAN_POINT('',(0.1455,-0.0985,-0.014455));
#1901=CARTESIAN_POINT('',(0.1455,-0.13045,-0.00461000000000006));
#1902=CARTESIAN_POINT('',(0.1455,-0.13045,-0.00353500000000011));
#1903=CARTESIAN_POINT('',(0.1455,-0.13045,-0.005685));
#1904=CARTESIAN_POINT('',(0.1455,-0.12895,-0.00353500000000011));
#1905=CARTESIAN_POINT('',(0.1455,-0.12895,-0.00203500000000014));
#1906=CARTESIAN_POINT('',(0.1455,-0.125,-0.00203500000000011));
#1907=CARTESIAN_POINT('',(0.1455,-0.12105,-0.00203500000000011));
#1908=CARTESIAN_POINT('',(0.1455,-0.12105,-0.00353500000000011));
#1909=CARTESIAN_POINT('',(0.1455,-0.11955,-0.00353500000000011));
#1910=CARTESIAN_POINT('',(0.1455,-0.11955,-0.00461000000000006));
#1911=CARTESIAN_POINT('',(0.1455,-0.11955,-0.005685));
#1912=CARTESIAN_POINT('',(0.1455,-0.12105,-0.005685));
#1913=CARTESIAN_POINT('',(0.1455,-0.12105,-0.007185));
#1914=CARTESIAN_POINT('',(0.1455,-0.125,-0.007185));
#1915=CARTESIAN_POINT('',(0.1455,-0.12895,-0.007185));
#1916=CARTESIAN_POINT('',(0.1455,-0.12895,-0.005685));
#1917=CARTESIAN_POINT('',(0.1455,-0.1495,-0.014455));
#1918=CARTESIAN_POINT('',(0.1455,-0.1495,-0.014455));
#1919=CARTESIAN_POINT('',(0.1455,-0.0985,-0.014455));
#1920=CARTESIAN_POINT('',(0.17475,-0.1495,-0.014455));
#1921=CARTESIAN_POINT('',(0.17475,-0.1495,-0.014455));
#1922=CARTESIAN_POINT('',(0.17475,-0.0991862327456474,-0.014455));
#1923=CARTESIAN_POINT('',(0.204,-0.0488724654912949,-0.014455));
#1924=CARTESIAN_POINT('',(0.204,-0.1495,-0.014455));
#1925=CARTESIAN_POINT('',(0.1455,-0.1495,-0.014455));
#1926=CARTESIAN_POINT('',(0.1455,-0.0488724654912949,-0.014455));
#1927=CARTESIAN_POINT('',(0.1455,-0.1495,0.007545));
#1928=CARTESIAN_POINT('',(0.1455,-0.1495,0.000545));
#1929=CARTESIAN_POINT('',(0.1455,-0.1495,0.000545));
#1930=CARTESIAN_POINT('',(0.1455,-0.1495,0.000545));
#1931=CARTESIAN_POINT('',(0.1455,-0.1495,0.000545));
#1932=CARTESIAN_POINT('',(0.204,-0.1495,0.007545));
#1933=CARTESIAN_POINT('',(0.204,-0.1495,0.000545));
#1934=CARTESIAN_POINT('',(0.17475,-0.1495,0.000545));
#1935=CARTESIAN_POINT('',(0.204,-0.1495,0.000545));
#1936=CARTESIAN_POINT('',(0.1455,-0.0991862327456474,0.000545));
#1937=CARTESIAN_POINT('',(0.1455,-0.0488724654912949,0.000545));
#1938=CARTESIAN_POINT('',(0.1455,-0.0488724654912949,0.007545));
#1939=CARTESIAN_POINT('',(0.1455,-0.0488724654912949,0.000545));
#1940=CARTESIAN_POINT('',(0.204,-0.1495,0.000545));
#1941=CARTESIAN_POINT('',(0.204,-0.1495,0.000545));
#1942=CARTESIAN_POINT('',(0.1455,-0.0488724654912949,0.000545));
#1943=CARTESIAN_POINT('',(0.1455,-0.0488724654912949,0.000545));
#1944=CARTESIAN_POINT('',(0.204,-0.0991862327456474,0.000545));
#1945=CARTESIAN_POINT('',(0.204,-0.0488724654912949,0.000545));
#1946=CARTESIAN_POINT('',(0.17475,-0.0488724654912949,0.000545));
#1947=CARTESIAN_POINT('',(0.204,-0.0488724654912949,0.000545));
#1948=CARTESIAN_POINT('',(0.204,-0.0488724654912949,0.000545));
#1949=CARTESIAN_POINT('',(0.204,-0.0488724654912949,0.000545));
#1950=CARTESIAN_POINT('',(0.204,-0.0488724654912949,0.007545));
#1951=CARTESIAN_POINT('',(0.16008,-0.0488724654912949,-0.000585));
#1952=CARTESIAN_POINT('',(0.15639,-0.0488724654912949,-0.000585));
#1953=CARTESIAN_POINT('',(0.16377,-0.0488724654912949,-0.000585));
#1954=CARTESIAN_POINT('',(0.16377,-0.0488724654912949,-0.002085));
#1955=CARTESIAN_POINT('',(0.16527,-0.0488724654912949,-0.002085));
#1956=CARTESIAN_POINT('',(0.16527,-0.0488724654912949,-0.002905));
#1957=CARTESIAN_POINT('',(0.16527,-0.0488724654912949,-0.003725));
#1958=CARTESIAN_POINT('',(0.16377,-0.0488724654912949,-0.003725));
#1959=CARTESIAN_POINT('',(0.16377,-0.0488724654912949,-0.005225));
#1960=CARTESIAN_POINT('',(0.16008,-0.0488724654912949,-0.005225));
#1961=CARTESIAN_POINT('',(0.15639,-0.0488724654912949,-0.005225));
#1962=CARTESIAN_POINT('',(0.15639,-0.0488724654912949,-0.003725));
#1963=CARTESIAN_POINT('',(0.15489,-0.0488724654912949,-0.003725));
#1964=CARTESIAN_POINT('',(0.15489,-0.0488724654912949,-0.002905));
#1965=CARTESIAN_POINT('',(0.15489,-0.0488724654912949,-0.002085));
#1966=CARTESIAN_POINT('',(0.15639,-0.0488724654912949,-0.002085));
#1967=CARTESIAN_POINT('',(0.195541,-0.0488724654912949,-0.003885));
#1968=CARTESIAN_POINT('',(0.1455,-0.125,-0.00203500000000011));
#1969=CARTESIAN_POINT('',(0.1455,-0.12105,-0.00203500000000011));
#1970=CARTESIAN_POINT('',(0.1455,-0.12895,-0.00203500000000014));
#1971=CARTESIAN_POINT('',(0.1455,-0.12105,-0.00353500000000011));
#1972=CARTESIAN_POINT('',(0.1455,-0.11955,-0.00353500000000011));
#1973=CARTESIAN_POINT('',(0.1455,-0.11955,-0.00461000000000006));
#1974=CARTESIAN_POINT('',(0.1455,-0.11955,-0.005685));
#1975=CARTESIAN_POINT('',(0.1455,-0.12105,-0.005685));
#1976=CARTESIAN_POINT('',(0.1455,-0.12105,-0.007185));
#1977=CARTESIAN_POINT('',(0.1455,-0.125,-0.007185));
#1978=CARTESIAN_POINT('',(0.1455,-0.12895,-0.007185));
#1979=CARTESIAN_POINT('',(0.1455,-0.12895,-0.005685));
#1980=CARTESIAN_POINT('',(0.1455,-0.13045,-0.005685));
#1981=CARTESIAN_POINT('',(0.1455,-0.13045,-0.00461000000000006));
#1982=CARTESIAN_POINT('',(0.1455,-0.13045,-0.00353500000000011));
#1983=CARTESIAN_POINT('',(0.1455,-0.12895,-0.00353500000000011));
#1984=CARTESIAN_POINT('',(0.204,-0.0604507928848267,-0.012955));
#1985=CARTESIAN_POINT('',(0.204,-0.0544507928848267,-0.012955));
#1986=CARTESIAN_POINT('',(0.204,-0.0664507928848266,-0.012955));
#1987=CARTESIAN_POINT('',(0.204,-0.0544507928848267,-0.006955));
#1988=CARTESIAN_POINT('',(0.204,-0.0544507928848267,-0.000954999999999978));
#1989=CARTESIAN_POINT('',(0.204,-0.0604507928848267,-0.000954999999999979));
#1990=CARTESIAN_POINT('',(0.204,-0.0664507928848266,-0.000954999999999981));
#1991=CARTESIAN_POINT('',(0.204,-0.0664507928848266,-0.006955));
#1992=CARTESIAN_POINT('',(0.204,-0.0869507928848267,-0.006955));
#1993=CARTESIAN_POINT('',(0.204,-0.0869507928848267,-0.013955));
#1994=CARTESIAN_POINT('',(0.204,-0.0869507928848267,4.50000000000034E-5));
#1995=CARTESIAN_POINT('',(0.204,-0.0799507928848267,-0.013955));
#1996=CARTESIAN_POINT('',(0.204,-0.0729507928848266,-0.013955));
#1997=CARTESIAN_POINT('',(0.204,-0.0729507928848266,-0.006955));
#1998=CARTESIAN_POINT('',(0.204,-0.0729507928848266,4.50000000000042E-5));
#1999=CARTESIAN_POINT('',(0.204,-0.0799507928848267,4.50000000000042E-5));
#2000=CARTESIAN_POINT('',(0.204,-0.106450792884827,-0.006955));
#2001=CARTESIAN_POINT('',(0.204,-0.106450792884827,-0.013955));
#2002=CARTESIAN_POINT('',(0.204,-0.106450792884827,4.50000000000034E-5));
#2003=CARTESIAN_POINT('',(0.204,-0.0994507928848266,-0.013955));
#2004=CARTESIAN_POINT('',(0.204,-0.0924507928848266,-0.013955));
#2005=CARTESIAN_POINT('',(0.204,-0.0924507928848266,-0.006955));
#2006=CARTESIAN_POINT('',(0.204,-0.0924507928848266,4.50000000000042E-5));
#2007=CARTESIAN_POINT('',(0.204,-0.0994507928848266,4.50000000000042E-5));
#2008=CARTESIAN_POINT('',(0.204,-0.125950792884827,-0.006955));
#2009=CARTESIAN_POINT('',(0.204,-0.125950792884827,-0.013955));
#2010=CARTESIAN_POINT('',(0.204,-0.125950792884827,4.50000000000034E-5));
#2011=CARTESIAN_POINT('',(0.204,-0.118950792884827,-0.013955));
#2012=CARTESIAN_POINT('',(0.204,-0.111950792884827,-0.013955));
#2013=CARTESIAN_POINT('',(0.204,-0.111950792884827,-0.006955));
#2014=CARTESIAN_POINT('',(0.204,-0.111950792884827,4.50000000000042E-5));
#2015=CARTESIAN_POINT('',(0.204,-0.118950792884827,4.50000000000042E-5));
#2016=CARTESIAN_POINT('',(0.204,-0.138450792884827,-0.013955));
#2017=CARTESIAN_POINT('',(0.204,-0.131450792884827,-0.013955));
#2018=CARTESIAN_POINT('',(0.204,-0.145450792884827,-0.013955));
#2019=CARTESIAN_POINT('',(0.204,-0.131450792884827,-0.006955));
#2020=CARTESIAN_POINT('',(0.204,-0.131450792884827,4.50000000000051E-5));
#2021=CARTESIAN_POINT('',(0.204,-0.138450792884827,4.50000000000042E-5));
#2022=CARTESIAN_POINT('',(0.204,-0.145450792884827,4.50000000000025E-5));
#2023=CARTESIAN_POINT('',(0.204,-0.145450792884827,-0.006955));
#2024=MECHANICAL_DESIGN_GEOMETRIC_PRESENTATION_REPRESENTATION('',(#1235),
#2025);
#2025=(
GEOMETRIC_REPRESENTATION_CONTEXT(3)
GLOBAL_UNCERTAINTY_ASSIGNED_CONTEXT((#2026))
GLOBAL_UNIT_ASSIGNED_CONTEXT((#2029,#2028,#2027))
REPRESENTATION_CONTEXT('Top','TOP_LEVEL_ASSEMBLY_PART')
);
#2026=UNCERTAINTY_MEASURE_WITH_UNIT(LENGTH_MEASURE(1.E-8),#2029,
'DISTANCE_ACCURACY_VALUE','Maximum Tolerance applied to model');
#2027=(
NAMED_UNIT(*)
SI_UNIT($,.STERADIAN.)
SOLID_ANGLE_UNIT()
);
#2028=(
NAMED_UNIT(*)
PLANE_ANGLE_UNIT()
SI_UNIT($,.RADIAN.)
);
#2029=(
LENGTH_UNIT()
NAMED_UNIT(*)
SI_UNIT($,.METRE.)
);
#2030=PRODUCT_DEFINITION_SHAPE('','',#2031);
#2031=PRODUCT_DEFINITION('','',#2033,#2032);
#2032=PRODUCT_DEFINITION_CONTEXT('',#2039,'design');
#2033=PRODUCT_DEFINITION_FORMATION_WITH_SPECIFIED_SOURCE('','',#2035,
 .NOT_KNOWN.);
#2034=PRODUCT_RELATED_PRODUCT_CATEGORY('','',(#2035));
#2035=PRODUCT('Top','Top','Top',(#2037));
#2036=PRODUCT_CATEGORY('','');
#2037=PRODUCT_CONTEXT('',#2039,'mechanical');
#2038=APPLICATION_PROTOCOL_DEFINITION('international standard',
'ap242_managed_model_based_3d_engineering',2020,#2039);
#2039=APPLICATION_CONTEXT('managed model based 3d engineering');
ENDSEC;
END-ISO-10303-21;
