ISO-10303-21;
HEADER;
/* Generated by software containing ST-Developer
 * from STEP Tools, Inc. (www.steptools.com) 
 */
/* OPTION: using custom renumber hook */

FILE_DESCRIPTION(
/* description */ ('STEP AP242 Edition 2',
'CAx-IF Rec.Pracs.---Representation and Presentation of Product Manufa
cturing Information (PMI)---4.0---2014-10-13',
'CAx-IF Rec.Pracs.---3D Tessellated Geometry---0.4---2014-09-14','2;1',
'CAx-IF Rec.Pracs.---User Defined Attributes---1.5---2016-08-15'),
/* implementation_level */ '2;1');

FILE_NAME(
/* name */ 'Part Studio 1 - Bottom',
/* time_stamp */ '2026-04-25T10:41:35Z',
/* author */ (''),
/* organization */ (''),
/* preprocessor_version */ 'ST-DEVELOPER v20',
/* originating_system */ 'ONSHAPE BY PTC INC, 1.214',
/* authorisation */ '  ');

FILE_SCHEMA (('AP242_MANAGED_MODEL_BASED_3D_ENGINEERING_MIM_LF { 1 0 10303 442 3 1 4 }'));
ENDSEC;

DATA;
#10=SHAPE_REPRESENTATION_RELATIONSHIP('','',#343,#11);
#11=ADVANCED_BREP_SHAPE_REPRESENTATION('',(#341),#569);
#12=CYLINDRICAL_SURFACE('',#364,0.01);
#13=CYLINDRICAL_SURFACE('',#366,0.01);
#14=CYLINDRICAL_SURFACE('',#372,0.01);
#15=CYLINDRICAL_SURFACE('',#374,0.01);
#16=SPHERICAL_SURFACE('',#361,0.01);
#17=SPHERICAL_SURFACE('',#368,0.01);
#18=SPHERICAL_SURFACE('',#370,0.01);
#19=SPHERICAL_SURFACE('',#376,0.01);
#20=CIRCLE('',#355,0.01);
#21=CIRCLE('',#356,0.01);
#22=CIRCLE('',#357,0.01);
#23=CIRCLE('',#358,0.01);
#24=CIRCLE('',#362,0.01);
#25=CIRCLE('',#363,0.01);
#26=CIRCLE('',#365,0.01);
#27=CIRCLE('',#367,0.01);
#28=CIRCLE('',#369,0.01);
#29=CIRCLE('',#371,0.01);
#30=CIRCLE('',#373,0.01);
#31=CIRCLE('',#375,0.01);
#32=ORIENTED_EDGE('',*,*,#120,.F.);
#33=ORIENTED_EDGE('',*,*,#121,.F.);
#34=ORIENTED_EDGE('',*,*,#122,.F.);
#35=ORIENTED_EDGE('',*,*,#123,.T.);
#36=ORIENTED_EDGE('',*,*,#124,.T.);
#37=ORIENTED_EDGE('',*,*,#125,.T.);
#38=ORIENTED_EDGE('',*,*,#123,.F.);
#39=ORIENTED_EDGE('',*,*,#126,.T.);
#40=ORIENTED_EDGE('',*,*,#127,.T.);
#41=ORIENTED_EDGE('',*,*,#128,.T.);
#42=ORIENTED_EDGE('',*,*,#124,.F.);
#43=ORIENTED_EDGE('',*,*,#129,.T.);
#44=ORIENTED_EDGE('',*,*,#130,.F.);
#45=ORIENTED_EDGE('',*,*,#131,.F.);
#46=ORIENTED_EDGE('',*,*,#132,.F.);
#47=ORIENTED_EDGE('',*,*,#133,.T.);
#48=ORIENTED_EDGE('',*,*,#134,.T.);
#49=ORIENTED_EDGE('',*,*,#135,.T.);
#50=ORIENTED_EDGE('',*,*,#133,.F.);
#51=ORIENTED_EDGE('',*,*,#136,.T.);
#52=ORIENTED_EDGE('',*,*,#137,.T.);
#53=ORIENTED_EDGE('',*,*,#138,.T.);
#54=ORIENTED_EDGE('',*,*,#134,.F.);
#55=ORIENTED_EDGE('',*,*,#139,.T.);
#56=ORIENTED_EDGE('',*,*,#140,.F.);
#57=ORIENTED_EDGE('',*,*,#137,.F.);
#58=ORIENTED_EDGE('',*,*,#141,.F.);
#59=ORIENTED_EDGE('',*,*,#131,.T.);
#60=ORIENTED_EDGE('',*,*,#142,.F.);
#61=ORIENTED_EDGE('',*,*,#127,.F.);
#62=ORIENTED_EDGE('',*,*,#143,.F.);
#63=ORIENTED_EDGE('',*,*,#121,.T.);
#64=ORIENTED_EDGE('',*,*,#132,.T.);
#65=ORIENTED_EDGE('',*,*,#141,.T.);
#66=ORIENTED_EDGE('',*,*,#139,.F.);
#67=ORIENTED_EDGE('',*,*,#136,.F.);
#68=ORIENTED_EDGE('',*,*,#122,.T.);
#69=ORIENTED_EDGE('',*,*,#143,.T.);
#70=ORIENTED_EDGE('',*,*,#129,.F.);
#71=ORIENTED_EDGE('',*,*,#126,.F.);
#72=ORIENTED_EDGE('',*,*,#144,.F.);
#73=ORIENTED_EDGE('',*,*,#145,.T.);
#74=ORIENTED_EDGE('',*,*,#146,.F.);
#75=ORIENTED_EDGE('',*,*,#147,.T.);
#76=ORIENTED_EDGE('',*,*,#148,.T.);
#77=ORIENTED_EDGE('',*,*,#149,.T.);
#78=ORIENTED_EDGE('',*,*,#150,.T.);
#79=ORIENTED_EDGE('',*,*,#151,.T.);
#80=ORIENTED_EDGE('',*,*,#142,.T.);
#81=ORIENTED_EDGE('',*,*,#120,.T.);
#82=ORIENTED_EDGE('',*,*,#125,.F.);
#83=ORIENTED_EDGE('',*,*,#128,.F.);
#84=ORIENTED_EDGE('',*,*,#152,.T.);
#85=ORIENTED_EDGE('',*,*,#153,.T.);
#86=ORIENTED_EDGE('',*,*,#154,.T.);
#87=ORIENTED_EDGE('',*,*,#155,.T.);
#88=ORIENTED_EDGE('',*,*,#140,.T.);
#89=ORIENTED_EDGE('',*,*,#130,.T.);
#90=ORIENTED_EDGE('',*,*,#135,.F.);
#91=ORIENTED_EDGE('',*,*,#138,.F.);
#92=ORIENTED_EDGE('',*,*,#156,.F.);
#93=ORIENTED_EDGE('',*,*,#149,.F.);
#94=ORIENTED_EDGE('',*,*,#157,.F.);
#95=ORIENTED_EDGE('',*,*,#157,.T.);
#96=ORIENTED_EDGE('',*,*,#148,.F.);
#97=ORIENTED_EDGE('',*,*,#158,.F.);
#98=ORIENTED_EDGE('',*,*,#152,.F.);
#99=ORIENTED_EDGE('',*,*,#156,.T.);
#100=ORIENTED_EDGE('',*,*,#155,.F.);
#101=ORIENTED_EDGE('',*,*,#159,.F.);
#102=ORIENTED_EDGE('',*,*,#150,.F.);
#103=ORIENTED_EDGE('',*,*,#158,.T.);
#104=ORIENTED_EDGE('',*,*,#147,.F.);
#105=ORIENTED_EDGE('',*,*,#160,.F.);
#106=ORIENTED_EDGE('',*,*,#151,.F.);
#107=ORIENTED_EDGE('',*,*,#159,.T.);
#108=ORIENTED_EDGE('',*,*,#161,.F.);
#109=ORIENTED_EDGE('',*,*,#160,.T.);
#110=ORIENTED_EDGE('',*,*,#146,.T.);
#111=ORIENTED_EDGE('',*,*,#162,.F.);
#112=ORIENTED_EDGE('',*,*,#153,.F.);
#113=ORIENTED_EDGE('',*,*,#161,.T.);
#114=ORIENTED_EDGE('',*,*,#154,.F.);
#115=ORIENTED_EDGE('',*,*,#163,.F.);
#116=ORIENTED_EDGE('',*,*,#144,.T.);
#117=ORIENTED_EDGE('',*,*,#163,.T.);
#118=ORIENTED_EDGE('',*,*,#162,.T.);
#119=ORIENTED_EDGE('',*,*,#145,.F.);
#120=EDGE_CURVE('',#164,#165,#192,.T.);
#121=EDGE_CURVE('',#166,#164,#193,.T.);
#122=EDGE_CURVE('',#167,#166,#194,.T.);
#123=EDGE_CURVE('',#167,#165,#195,.T.);
#124=EDGE_CURVE('',#168,#169,#196,.T.);
#125=EDGE_CURVE('',#169,#165,#197,.T.);
#126=EDGE_CURVE('',#167,#168,#198,.T.);
#127=EDGE_CURVE('',#170,#171,#199,.T.);
#128=EDGE_CURVE('',#171,#169,#200,.T.);
#129=EDGE_CURVE('',#168,#170,#201,.T.);
#130=EDGE_CURVE('',#172,#173,#202,.T.);
#131=EDGE_CURVE('',#174,#172,#203,.T.);
#132=EDGE_CURVE('',#175,#174,#204,.T.);
#133=EDGE_CURVE('',#175,#173,#205,.T.);
#134=EDGE_CURVE('',#176,#177,#206,.T.);
#135=EDGE_CURVE('',#177,#173,#207,.T.);
#136=EDGE_CURVE('',#175,#176,#208,.T.);
#137=EDGE_CURVE('',#178,#179,#209,.T.);
#138=EDGE_CURVE('',#179,#177,#210,.T.);
#139=EDGE_CURVE('',#176,#178,#211,.T.);
#140=EDGE_CURVE('',#179,#172,#212,.T.);
#141=EDGE_CURVE('',#174,#178,#213,.T.);
#142=EDGE_CURVE('',#171,#164,#214,.T.);
#143=EDGE_CURVE('',#166,#170,#215,.T.);
#144=EDGE_CURVE('',#180,#181,#216,.T.);
#145=EDGE_CURVE('',#180,#182,#20,.F.);
#146=EDGE_CURVE('',#183,#182,#217,.T.);
#147=EDGE_CURVE('',#183,#184,#21,.F.);
#148=EDGE_CURVE('',#184,#185,#218,.T.);
#149=EDGE_CURVE('',#185,#186,#22,.F.);
#150=EDGE_CURVE('',#186,#187,#219,.T.);
#151=EDGE_CURVE('',#187,#181,#23,.F.);
#152=EDGE_CURVE('',#188,#189,#220,.F.);
#153=EDGE_CURVE('',#189,#190,#221,.T.);
#154=EDGE_CURVE('',#190,#191,#222,.T.);
#155=EDGE_CURVE('',#191,#188,#223,.F.);
#156=EDGE_CURVE('',#186,#188,#24,.F.);
#157=EDGE_CURVE('',#188,#185,#25,.F.);
#158=EDGE_CURVE('',#189,#184,#26,.T.);
#159=EDGE_CURVE('',#187,#191,#27,.T.);
#160=EDGE_CURVE('',#189,#183,#28,.F.);
#161=EDGE_CURVE('',#181,#191,#29,.F.);
#162=EDGE_CURVE('',#190,#182,#30,.T.);
#163=EDGE_CURVE('',#180,#190,#31,.T.);
#164=VERTEX_POINT('',#478);
#165=VERTEX_POINT('',#479);
#166=VERTEX_POINT('',#481);
#167=VERTEX_POINT('',#483);
#168=VERTEX_POINT('',#487);
#169=VERTEX_POINT('',#488);
#170=VERTEX_POINT('',#493);
#171=VERTEX_POINT('',#494);
#172=VERTEX_POINT('',#499);
#173=VERTEX_POINT('',#500);
#174=VERTEX_POINT('',#502);
#175=VERTEX_POINT('',#504);
#176=VERTEX_POINT('',#508);
#177=VERTEX_POINT('',#509);
#178=VERTEX_POINT('',#514);
#179=VERTEX_POINT('',#515);
#180=VERTEX_POINT('',#527);
#181=VERTEX_POINT('',#528);
#182=VERTEX_POINT('',#530);
#183=VERTEX_POINT('',#532);
#184=VERTEX_POINT('',#534);
#185=VERTEX_POINT('',#536);
#186=VERTEX_POINT('',#538);
#187=VERTEX_POINT('',#540);
#188=VERTEX_POINT('',#544);
#189=VERTEX_POINT('',#545);
#190=VERTEX_POINT('',#547);
#191=VERTEX_POINT('',#549);
#192=LINE('',#477,#224);
#193=LINE('',#480,#225);
#194=LINE('',#482,#226);
#195=LINE('',#484,#227);
#196=LINE('',#486,#228);
#197=LINE('',#489,#229);
#198=LINE('',#490,#230);
#199=LINE('',#492,#231);
#200=LINE('',#495,#232);
#201=LINE('',#496,#233);
#202=LINE('',#498,#234);
#203=LINE('',#501,#235);
#204=LINE('',#503,#236);
#205=LINE('',#505,#237);
#206=LINE('',#507,#238);
#207=LINE('',#510,#239);
#208=LINE('',#511,#240);
#209=LINE('',#513,#241);
#210=LINE('',#516,#242);
#211=LINE('',#517,#243);
#212=LINE('',#519,#244);
#213=LINE('',#520,#245);
#214=LINE('',#522,#246);
#215=LINE('',#523,#247);
#216=LINE('',#526,#248);
#217=LINE('',#531,#249);
#218=LINE('',#535,#250);
#219=LINE('',#539,#251);
#220=LINE('',#543,#252);
#221=LINE('',#546,#253);
#222=LINE('',#548,#254);
#223=LINE('',#550,#255);
#224=VECTOR('',#381,1.);
#225=VECTOR('',#382,1.);
#226=VECTOR('',#383,1.);
#227=VECTOR('',#384,1.);
#228=VECTOR('',#387,1.);
#229=VECTOR('',#388,1.);
#230=VECTOR('',#389,1.);
#231=VECTOR('',#392,1.);
#232=VECTOR('',#393,1.);
#233=VECTOR('',#394,1.);
#234=VECTOR('',#397,1.);
#235=VECTOR('',#398,1.);
#236=VECTOR('',#399,1.);
#237=VECTOR('',#400,1.);
#238=VECTOR('',#403,1.);
#239=VECTOR('',#404,1.);
#240=VECTOR('',#405,1.);
#241=VECTOR('',#408,1.);
#242=VECTOR('',#409,1.);
#243=VECTOR('',#410,1.);
#244=VECTOR('',#413,1.);
#245=VECTOR('',#414,1.);
#246=VECTOR('',#417,1.);
#247=VECTOR('',#418,1.);
#248=VECTOR('',#423,1.);
#249=VECTOR('',#426,1.);
#250=VECTOR('',#429,1.);
#251=VECTOR('',#432,1.);
#252=VECTOR('',#437,1.);
#253=VECTOR('',#438,1.);
#254=VECTOR('',#439,1.);
#255=VECTOR('',#440,1.);
#256=EDGE_LOOP('',(#32,#33,#34,#35));
#257=EDGE_LOOP('',(#36,#37,#38,#39));
#258=EDGE_LOOP('',(#40,#41,#42,#43));
#259=EDGE_LOOP('',(#44,#45,#46,#47));
#260=EDGE_LOOP('',(#48,#49,#50,#51));
#261=EDGE_LOOP('',(#52,#53,#54,#55));
#262=EDGE_LOOP('',(#56,#57,#58,#59));
#263=EDGE_LOOP('',(#60,#61,#62,#63));
#264=EDGE_LOOP('',(#64,#65,#66,#67));
#265=EDGE_LOOP('',(#68,#69,#70,#71));
#266=EDGE_LOOP('',(#72,#73,#74,#75,#76,#77,#78,#79));
#267=EDGE_LOOP('',(#80,#81,#82,#83));
#268=EDGE_LOOP('',(#84,#85,#86,#87));
#269=EDGE_LOOP('',(#88,#89,#90,#91));
#270=EDGE_LOOP('',(#92,#93,#94));
#271=EDGE_LOOP('',(#95,#96,#97,#98));
#272=EDGE_LOOP('',(#99,#100,#101,#102));
#273=EDGE_LOOP('',(#103,#104,#105));
#274=EDGE_LOOP('',(#106,#107,#108));
#275=EDGE_LOOP('',(#109,#110,#111,#112));
#276=EDGE_LOOP('',(#113,#114,#115,#116));
#277=EDGE_LOOP('',(#117,#118,#119));
#278=FACE_BOUND('',#256,.T.);
#279=FACE_BOUND('',#257,.T.);
#280=FACE_BOUND('',#258,.T.);
#281=FACE_BOUND('',#259,.T.);
#282=FACE_BOUND('',#260,.T.);
#283=FACE_BOUND('',#261,.T.);
#284=FACE_BOUND('',#262,.T.);
#285=FACE_BOUND('',#263,.T.);
#286=FACE_BOUND('',#264,.T.);
#287=FACE_BOUND('',#265,.T.);
#288=FACE_BOUND('',#266,.T.);
#289=FACE_BOUND('',#267,.T.);
#290=FACE_BOUND('',#268,.T.);
#291=FACE_BOUND('',#269,.T.);
#292=FACE_BOUND('',#270,.T.);
#293=FACE_BOUND('',#271,.T.);
#294=FACE_BOUND('',#272,.T.);
#295=FACE_BOUND('',#273,.T.);
#296=FACE_BOUND('',#274,.T.);
#297=FACE_BOUND('',#275,.T.);
#298=FACE_BOUND('',#276,.T.);
#299=FACE_BOUND('',#277,.T.);
#300=PLANE('',#345);
#301=PLANE('',#346);
#302=PLANE('',#347);
#303=PLANE('',#348);
#304=PLANE('',#349);
#305=PLANE('',#350);
#306=PLANE('',#351);
#307=PLANE('',#352);
#308=PLANE('',#353);
#309=PLANE('',#354);
#310=PLANE('',#359);
#311=PLANE('',#360);
#312=ADVANCED_FACE('',(#278),#300,.F.);
#313=ADVANCED_FACE('',(#279),#301,.T.);
#314=ADVANCED_FACE('',(#280),#302,.T.);
#315=ADVANCED_FACE('',(#281),#303,.F.);
#316=ADVANCED_FACE('',(#282),#304,.T.);
#317=ADVANCED_FACE('',(#283),#305,.T.);
#318=ADVANCED_FACE('',(#284),#306,.F.);
#319=ADVANCED_FACE('',(#285),#307,.F.);
#320=ADVANCED_FACE('',(#286,#287),#308,.F.);
#321=ADVANCED_FACE('',(#288,#289),#309,.F.);
#322=ADVANCED_FACE('',(#290),#310,.T.);
#323=ADVANCED_FACE('',(#291),#311,.F.);
#324=ADVANCED_FACE('',(#292),#16,.T.);
#325=ADVANCED_FACE('',(#293),#12,.T.);
#326=ADVANCED_FACE('',(#294),#13,.T.);
#327=ADVANCED_FACE('',(#295),#17,.T.);
#328=ADVANCED_FACE('',(#296),#18,.T.);
#329=ADVANCED_FACE('',(#297),#14,.T.);
#330=ADVANCED_FACE('',(#298),#15,.T.);
#331=ADVANCED_FACE('',(#299),#19,.T.);
#332=CLOSED_SHELL('',(#312,#313,#314,#315,#316,#317,#318,#319,#320,#321,
#322,#323,#324,#325,#326,#327,#328,#329,#330,#331));
#333=STYLED_ITEM('',(#334),#341);
#334=PRESENTATION_STYLE_ASSIGNMENT((#335));
#335=SURFACE_STYLE_USAGE(.BOTH.,#336);
#336=SURFACE_SIDE_STYLE('',(#337));
#337=SURFACE_STYLE_FILL_AREA(#338);
#338=FILL_AREA_STYLE('',(#339));
#339=FILL_AREA_STYLE_COLOUR('',#340);
#340=COLOUR_RGB('',0.615686274509804,0.811764705882353,0.929411764705882);
#341=MANIFOLD_SOLID_BREP('Bottom',#332);
#342=SHAPE_DEFINITION_REPRESENTATION(#574,#343);
#343=SHAPE_REPRESENTATION('Bottom',(#344),#569);
#344=AXIS2_PLACEMENT_3D('',#475,#377,#378);
#345=AXIS2_PLACEMENT_3D('',#476,#379,#380);
#346=AXIS2_PLACEMENT_3D('',#485,#385,#386);
#347=AXIS2_PLACEMENT_3D('',#491,#390,#391);
#348=AXIS2_PLACEMENT_3D('',#497,#395,#396);
#349=AXIS2_PLACEMENT_3D('',#506,#401,#402);
#350=AXIS2_PLACEMENT_3D('',#512,#406,#407);
#351=AXIS2_PLACEMENT_3D('',#518,#411,#412);
#352=AXIS2_PLACEMENT_3D('',#521,#415,#416);
#353=AXIS2_PLACEMENT_3D('',#524,#419,#420);
#354=AXIS2_PLACEMENT_3D('',#525,#421,#422);
#355=AXIS2_PLACEMENT_3D('',#529,#424,#425);
#356=AXIS2_PLACEMENT_3D('',#533,#427,#428);
#357=AXIS2_PLACEMENT_3D('',#537,#430,#431);
#358=AXIS2_PLACEMENT_3D('',#541,#433,#434);
#359=AXIS2_PLACEMENT_3D('',#542,#435,#436);
#360=AXIS2_PLACEMENT_3D('',#551,#441,#442);
#361=AXIS2_PLACEMENT_3D('',#552,#443,#444);
#362=AXIS2_PLACEMENT_3D('',#553,#445,#446);
#363=AXIS2_PLACEMENT_3D('',#554,#447,#448);
#364=AXIS2_PLACEMENT_3D('',#555,#449,#450);
#365=AXIS2_PLACEMENT_3D('',#556,#451,#452);
#366=AXIS2_PLACEMENT_3D('',#557,#453,#454);
#367=AXIS2_PLACEMENT_3D('',#558,#455,#456);
#368=AXIS2_PLACEMENT_3D('',#559,#457,#458);
#369=AXIS2_PLACEMENT_3D('',#560,#459,#460);
#370=AXIS2_PLACEMENT_3D('',#561,#461,#462);
#371=AXIS2_PLACEMENT_3D('',#562,#463,#464);
#372=AXIS2_PLACEMENT_3D('',#563,#465,#466);
#373=AXIS2_PLACEMENT_3D('',#564,#467,#468);
#374=AXIS2_PLACEMENT_3D('',#565,#469,#470);
#375=AXIS2_PLACEMENT_3D('',#566,#471,#472);
#376=AXIS2_PLACEMENT_3D('',#567,#473,#474);
#377=DIRECTION('',(0.,0.,1.));
#378=DIRECTION('',(1.,0.,0.));
#379=DIRECTION('',(0.,1.,0.));
#380=DIRECTION('',(0.,0.,1.));
#381=DIRECTION('',(-1.,0.,0.));
#382=DIRECTION('',(0.,0.,-1.));
#383=DIRECTION('',(1.,0.,0.));
#384=DIRECTION('',(0.,0.,-1.));
#385=DIRECTION('',(-1.,0.,0.));
#386=DIRECTION('',(0.,0.,1.));
#387=DIRECTION('',(0.,0.,-1.));
#388=DIRECTION('',(0.,-1.,0.));
#389=DIRECTION('',(0.,1.,0.));
#390=DIRECTION('',(0.,1.,0.));
#391=DIRECTION('',(0.,0.,1.));
#392=DIRECTION('',(0.,0.,-1.));
#393=DIRECTION('',(-1.,0.,0.));
#394=DIRECTION('',(1.,0.,0.));
#395=DIRECTION('',(-1.,0.,0.));
#396=DIRECTION('',(0.,0.,1.));
#397=DIRECTION('',(0.,-1.,0.));
#398=DIRECTION('',(0.,0.,-1.));
#399=DIRECTION('',(0.,1.,0.));
#400=DIRECTION('',(0.,0.,-1.));
#401=DIRECTION('',(0.,1.,0.));
#402=DIRECTION('',(0.,0.,1.));
#403=DIRECTION('',(0.,0.,-1.));
#404=DIRECTION('',(-1.,0.,0.));
#405=DIRECTION('',(1.,0.,0.));
#406=DIRECTION('',(-1.,0.,0.));
#407=DIRECTION('',(0.,0.,1.));
#408=DIRECTION('',(0.,0.,-1.));
#409=DIRECTION('',(0.,-1.,0.));
#410=DIRECTION('',(0.,1.,0.));
#411=DIRECTION('',(2.66368288057859E-16,1.,0.));
#412=DIRECTION('',(-1.,2.66368288057859E-16,0.));
#413=DIRECTION('',(-1.,2.66368288057859E-16,0.));
#414=DIRECTION('',(1.,-2.66368288057859E-16,0.));
#415=DIRECTION('',(-1.,0.,0.));
#416=DIRECTION('',(0.,0.,1.));
#417=DIRECTION('',(0.,-1.,0.));
#418=DIRECTION('',(0.,1.,0.));
#419=DIRECTION('',(0.,0.,-1.));
#420=DIRECTION('',(1.,0.,0.));
#421=DIRECTION('',(0.,0.,-1.));
#422=DIRECTION('',(1.,0.,0.));
#423=DIRECTION('',(0.,-1.,0.));
#424=DIRECTION('',(0.,0.,-1.));
#425=DIRECTION('',(-1.,0.,0.));
#426=DIRECTION('',(1.,1.76787105832031E-16,0.));
#427=DIRECTION('',(0.,0.,-1.));
#428=DIRECTION('',(-1.,0.,0.));
#429=DIRECTION('',(0.,-1.,0.));
#430=DIRECTION('',(0.,0.,-1.));
#431=DIRECTION('',(-1.,0.,0.));
#432=DIRECTION('',(1.,0.,0.));
#433=DIRECTION('',(0.,0.,-1.));
#434=DIRECTION('',(-1.,0.,0.));
#435=DIRECTION('',(0.,0.,-1.));
#436=DIRECTION('',(1.,0.,0.));
#437=DIRECTION('',(0.,-1.,0.));
#438=DIRECTION('',(1.,1.76787105832031E-16,0.));
#439=DIRECTION('',(0.,-1.,0.));
#440=DIRECTION('',(1.,0.,0.));
#441=DIRECTION('',(0.,0.,-1.));
#442=DIRECTION('',(1.,0.,0.));
#443=DIRECTION('',(-1.,0.,0.));
#444=DIRECTION('',(0.,0.,1.));
#445=DIRECTION('',(-1.,0.,0.));
#446=DIRECTION('',(0.,0.,1.));
#447=DIRECTION('',(0.,-1.,0.));
#448=DIRECTION('',(0.,0.,-1.));
#449=DIRECTION('',(0.,1.,0.));
#450=DIRECTION('',(0.,0.,1.));
#451=DIRECTION('',(0.,1.,0.));
#452=DIRECTION('',(0.,0.,1.));
#453=DIRECTION('',(-1.,0.,0.));
#454=DIRECTION('',(0.,0.,1.));
#455=DIRECTION('',(1.,0.,0.));
#456=DIRECTION('',(0.,0.,-1.));
#457=DIRECTION('',(-1.,0.,0.));
#458=DIRECTION('',(0.,0.,1.));
#459=DIRECTION('',(-1.,0.,0.));
#460=DIRECTION('',(0.,0.,1.));
#461=DIRECTION('',(0.,-1.,0.));
#462=DIRECTION('',(0.,0.,-1.));
#463=DIRECTION('',(0.,-1.,0.));
#464=DIRECTION('',(0.,0.,-1.));
#465=DIRECTION('',(1.,1.76787105832031E-16,0.));
#466=DIRECTION('',(-1.76787105832031E-16,1.,0.));
#467=DIRECTION('',(1.,0.,0.));
#468=DIRECTION('',(0.,0.,-1.));
#469=DIRECTION('',(0.,-1.,0.));
#470=DIRECTION('',(0.,0.,-1.));
#471=DIRECTION('',(0.,1.,0.));
#472=DIRECTION('',(0.,0.,1.));
#473=DIRECTION('',(0.,0.,-1.));
#474=DIRECTION('',(-1.,0.,0.));
#475=CARTESIAN_POINT('',(0.,0.,0.));
#476=CARTESIAN_POINT('',(0.17475,-0.1493,-0.009455));
#477=CARTESIAN_POINT('',(0.17475,-0.1493,-0.014455));
#478=CARTESIAN_POINT('',(0.2038,-0.1493,-0.014455));
#479=CARTESIAN_POINT('',(0.1457,-0.1493,-0.014455));
#480=CARTESIAN_POINT('',(0.2038,-0.1493,-0.009455));
#481=CARTESIAN_POINT('',(0.2038,-0.1493,-0.009455));
#482=CARTESIAN_POINT('',(0.17475,-0.1493,-0.009455));
#483=CARTESIAN_POINT('',(0.1457,-0.1493,-0.009455));
#484=CARTESIAN_POINT('',(0.1457,-0.1493,-0.009455));
#485=CARTESIAN_POINT('',(0.1457,-0.0985,-0.009455));
#486=CARTESIAN_POINT('',(0.1457,-0.0477,-0.009455));
#487=CARTESIAN_POINT('',(0.1457,-0.0477,-0.009455));
#488=CARTESIAN_POINT('',(0.1457,-0.0477,-0.014455));
#489=CARTESIAN_POINT('',(0.1457,-0.0985,-0.014455));
#490=CARTESIAN_POINT('',(0.1457,-0.0985,-0.009455));
#491=CARTESIAN_POINT('',(0.17475,-0.0477,-0.009455));
#492=CARTESIAN_POINT('',(0.2038,-0.0477,-0.009455));
#493=CARTESIAN_POINT('',(0.2038,-0.0477,-0.009455));
#494=CARTESIAN_POINT('',(0.2038,-0.0477,-0.014455));
#495=CARTESIAN_POINT('',(0.17475,-0.0477,-0.014455));
#496=CARTESIAN_POINT('',(0.17475,-0.0477,-0.009455));
#497=CARTESIAN_POINT('',(0.1487,-0.0981902074307203,-0.009455));
#498=CARTESIAN_POINT('',(0.1487,-0.0981902074307203,-0.014455));
#499=CARTESIAN_POINT('',(0.1487,-0.0500804148614406,-0.014455));
#500=CARTESIAN_POINT('',(0.1487,-0.1463,-0.014455));
#501=CARTESIAN_POINT('',(0.1487,-0.0500804148614406,-0.009455));
#502=CARTESIAN_POINT('',(0.1487,-0.0500804148614406,-0.009455));
#503=CARTESIAN_POINT('',(0.1487,-0.0981902074307203,-0.009455));
#504=CARTESIAN_POINT('',(0.1487,-0.1463,-0.009455));
#505=CARTESIAN_POINT('',(0.1487,-0.1463,-0.009455));
#506=CARTESIAN_POINT('',(0.17475,-0.1463,-0.009455));
#507=CARTESIAN_POINT('',(0.2008,-0.1463,-0.009455));
#508=CARTESIAN_POINT('',(0.2008,-0.1463,-0.009455));
#509=CARTESIAN_POINT('',(0.2008,-0.1463,-0.014455));
#510=CARTESIAN_POINT('',(0.17475,-0.1463,-0.014455));
#511=CARTESIAN_POINT('',(0.17475,-0.1463,-0.009455));
#512=CARTESIAN_POINT('',(0.2008,-0.0981902074307203,-0.009455));
#513=CARTESIAN_POINT('',(0.2008,-0.0500804148614407,-0.009455));
#514=CARTESIAN_POINT('',(0.2008,-0.0500804148614407,-0.009455));
#515=CARTESIAN_POINT('',(0.2008,-0.0500804148614407,-0.014455));
#516=CARTESIAN_POINT('',(0.2008,-0.0981902074307203,-0.014455));
#517=CARTESIAN_POINT('',(0.2008,-0.0981902074307203,-0.009455));
#518=CARTESIAN_POINT('',(0.17475,-0.0500804148614407,-0.009455));
#519=CARTESIAN_POINT('',(0.17475,-0.0500804148614407,-0.014455));
#520=CARTESIAN_POINT('',(0.17475,-0.0500804148614407,-0.009455));
#521=CARTESIAN_POINT('',(0.2038,-0.0985,-0.009455));
#522=CARTESIAN_POINT('',(0.2038,-0.0985,-0.014455));
#523=CARTESIAN_POINT('',(0.2038,-0.0985,-0.009455));
#524=CARTESIAN_POINT('',(0.17475,-0.0991862327456474,-0.009455));
#525=CARTESIAN_POINT('',(0.17475,-0.0991862327456474,-0.014455));
#526=CARTESIAN_POINT('',(0.214,-0.0991862327456474,-0.014455));
#527=CARTESIAN_POINT('',(0.214,-0.0488724654912949,-0.014455));
#528=CARTESIAN_POINT('',(0.214,-0.1495,-0.014455));
#529=CARTESIAN_POINT('',(0.204,-0.0488724654912949,-0.014455));
#530=CARTESIAN_POINT('',(0.204,-0.0388724654912948,-0.014455));
#531=CARTESIAN_POINT('',(0.17475,-0.0388724654912948,-0.014455));
#532=CARTESIAN_POINT('',(0.1455,-0.0388724654912948,-0.014455));
#533=CARTESIAN_POINT('',(0.1455,-0.0488724654912949,-0.014455));
#534=CARTESIAN_POINT('',(0.1355,-0.0488724654912949,-0.014455));
#535=CARTESIAN_POINT('',(0.1355,-0.0991862327456474,-0.014455));
#536=CARTESIAN_POINT('',(0.1355,-0.1495,-0.014455));
#537=CARTESIAN_POINT('',(0.1455,-0.1495,-0.014455));
#538=CARTESIAN_POINT('',(0.1455,-0.1595,-0.014455));
#539=CARTESIAN_POINT('',(0.17475,-0.1595,-0.014455));
#540=CARTESIAN_POINT('',(0.204,-0.1595,-0.014455));
#541=CARTESIAN_POINT('',(0.204,-0.1495,-0.014455));
#542=CARTESIAN_POINT('',(0.17475,-0.0991862327456474,-0.024455));
#543=CARTESIAN_POINT('',(0.1455,-0.0388724654912948,-0.024455));
#544=CARTESIAN_POINT('',(0.1455,-0.1495,-0.024455));
#545=CARTESIAN_POINT('',(0.1455,-0.0488724654912949,-0.024455));
#546=CARTESIAN_POINT('',(0.17475,-0.0488724654912949,-0.024455));
#547=CARTESIAN_POINT('',(0.204,-0.0488724654912949,-0.024455));
#548=CARTESIAN_POINT('',(0.204,-0.0991862327456474,-0.024455));
#549=CARTESIAN_POINT('',(0.204,-0.1495,-0.024455));
#550=CARTESIAN_POINT('',(0.1355,-0.1495,-0.024455));
#551=CARTESIAN_POINT('',(0.17475,-0.0991862327456474,-0.014455));
#552=CARTESIAN_POINT('',(0.1455,-0.1495,-0.014455));
#553=CARTESIAN_POINT('',(0.1455,-0.1495,-0.014455));
#554=CARTESIAN_POINT('',(0.1455,-0.1495,-0.014455));
#555=CARTESIAN_POINT('',(0.1455,-0.0991862327456474,-0.014455));
#556=CARTESIAN_POINT('',(0.1455,-0.0488724654912949,-0.014455));
#557=CARTESIAN_POINT('',(0.17475,-0.1495,-0.014455));
#558=CARTESIAN_POINT('',(0.204,-0.1495,-0.014455));
#559=CARTESIAN_POINT('',(0.1455,-0.0488724654912949,-0.014455));
#560=CARTESIAN_POINT('',(0.1455,-0.0488724654912949,-0.014455));
#561=CARTESIAN_POINT('',(0.204,-0.1495,-0.014455));
#562=CARTESIAN_POINT('',(0.204,-0.1495,-0.014455));
#563=CARTESIAN_POINT('',(0.17475,-0.0488724654912949,-0.014455));
#564=CARTESIAN_POINT('',(0.204,-0.0488724654912949,-0.014455));
#565=CARTESIAN_POINT('',(0.204,-0.0991862327456474,-0.014455));
#566=CARTESIAN_POINT('',(0.204,-0.0488724654912949,-0.014455));
#567=CARTESIAN_POINT('',(0.204,-0.0488724654912949,-0.014455));
#568=MECHANICAL_DESIGN_GEOMETRIC_PRESENTATION_REPRESENTATION('',(#333),
#569);
#569=(
GEOMETRIC_REPRESENTATION_CONTEXT(3)
GLOBAL_UNCERTAINTY_ASSIGNED_CONTEXT((#570))
GLOBAL_UNIT_ASSIGNED_CONTEXT((#573,#572,#571))
REPRESENTATION_CONTEXT('Bottom','TOP_LEVEL_ASSEMBLY_PART')
);
#570=UNCERTAINTY_MEASURE_WITH_UNIT(LENGTH_MEASURE(1.E-8),#573,
'DISTANCE_ACCURACY_VALUE','Maximum Tolerance applied to model');
#571=(
NAMED_UNIT(*)
SI_UNIT($,.STERADIAN.)
SOLID_ANGLE_UNIT()
);
#572=(
NAMED_UNIT(*)
PLANE_ANGLE_UNIT()
SI_UNIT($,.RADIAN.)
);
#573=(
LENGTH_UNIT()
NAMED_UNIT(*)
SI_UNIT($,.METRE.)
);
#574=PRODUCT_DEFINITION_SHAPE('','',#575);
#575=PRODUCT_DEFINITION('','',#577,#576);
#576=PRODUCT_DEFINITION_CONTEXT('',#583,'design');
#577=PRODUCT_DEFINITION_FORMATION_WITH_SPECIFIED_SOURCE('','',#579,
 .NOT_KNOWN.);
#578=PRODUCT_RELATED_PRODUCT_CATEGORY('','',(#579));
#579=PRODUCT('Bottom','Bottom','Bottom',(#581));
#580=PRODUCT_CATEGORY('','');
#581=PRODUCT_CONTEXT('',#583,'mechanical');
#582=APPLICATION_PROTOCOL_DEFINITION('international standard',
'ap242_managed_model_based_3d_engineering',2020,#583);
#583=APPLICATION_CONTEXT('managed model based 3d engineering');
ENDSEC;
END-ISO-10303-21;
